<svg xmlns="http://www.w3.org/2000/svg" xmlns:xlink="http://www.w3.org/1999/xlink" viewBox="0 0 500 500"><defs><style>.cls-1{fill:#f3dfcd;}.cls-2{fill:#4a2847;}.cls-3{fill:#926290;}.cls-4{fill:none;}.cls-5{stroke:#231f20;stroke-miterlimit:10;stroke-width:2px;}.cls-6{clip-path:url(#clip-path);}.cls-7{fill:#ddbfa6;}.cls-8{clip-path:url(#clip-path-2);}.cls-9{fill:#3d213d;}.cls-10{clip-path:url(#clip-path-3);}.cls-11{fill:#fff;}.cls-12{fill:#231f20;}.cls-13{clip-path:url(#clip-path-4);}.cls-14{fill:#7c4f7a;}</style><clipPath id="clip-path"><path class="cls-1" d="M323.87,363c10.72,0,20.69-10.38,25.37-26.4l2.54-8.74s0,0,0,0v-.1q-.28-18.35-1.43-36.7a777.83,777.83,0,0,0-11.49-93.27c-1.39-7.5-3-15-5.05-22.38H297.68a21.85,21.85,0,0,1-1.2,5c-1.81,5-5.52,9.79-11,10.79a4.77,4.77,0,0,1-2.1-.08h0a3.53,3.53,0,0,1-2.62-2.55,3.66,3.66,0,0,1-.08-1.44,3.6,3.6,0,0,1,2.68-3.14c4-.73,5.95-4.88,6.64-8.53,0,0,0,0,0-.05,0-.17.06-.32.08-.48a23.29,23.29,0,0,0,.13-5.48,0,0,0,0,1,0,0,65.87,65.87,0,0,0-2-10.42c-1.68-7-3.69-13.85-6-20.64a67.24,67.24,0,0,1-19.11,31.15c-1.16,1-2.35,2-3.58,3-1.4,1.06-2.85,2.06-4.33,3a52.54,52.54,0,0,1-9.13,4.55,3,3,0,0,1-2,.12c-1.91-.41-3.07-2.75-2.68-4.71a3.87,3.87,0,0,1,.29-.91c.35-.69.67-1.37,1-2.07.46-1,.91-2,1.33-3,1-2.29,1.84-4.61,2.61-7a78.25,78.25,0,0,1-6.23,7c-1,1-2,2-3.07,3s-2.2,2-3.34,3a81.57,81.57,0,0,1-6.88,5.15h0c-1.28.89-2.56,1.72-3.89,2.51a3.42,3.42,0,0,1-2.74.44l-.23-.08c-2.67-.8-4.08-5-1-6.83.64-.39,1.28-.77,1.89-1.19h-28a0,0,0,0,0,0,0h-4.28c-.11.29-.21.61-.31.9-2.88,8.29-5.3,16.73-7.58,25.18-2.47,9.14-4.85,18.32-7.07,27.53a198.67,198.67,0,0,0-5.13,28.62c-2.4,26.53,4.39,54.64,1.61,81.27-.17,1.61-.36,3.19-.6,4.78a36.05,36.05,0,0,0,1.82,3.69.61.61,0,0,1,0-.13,40.62,40.62,0,0,0,3.52,5.49c.4.55.84,1.08,1.3,1.61a24.76,24.76,0,0,0,11.19,7.93c.5.15,1,.28,1.49.4a17,17,0,0,0,3.57.39Z"/></clipPath><clipPath id="clip-path-2"><path class="cls-2" d="M178.05,184.5q1.27-4.14,2.65-8.25c.33-1,.67-2,1-3s.68-2,1.05-3a160.59,160.59,0,0,1,16.1-33.2,83.62,83.62,0,0,0-13.29-8.88,126.6,126.6,0,0,0-25.26-10,92.58,92.58,0,0,0-26.52-4.09,49.23,49.23,0,0,0-25.39,6.85A61.33,61.33,0,0,0,91.58,137c-10.4,14.05-17,30.37-24.93,45.83C61.24,193.37,55,204,46.8,212.56l16.55-3.39c1.82-.37,4.21.52,4.58,2.59.73,4.25,1.33,8.54,1.71,12.83,3.11,33.51-5,68.24-23.52,96.39-4.7,7.14-10,14.21-12.67,22.41-2.48,7.46-3.18,16.09,1,23.07,4.06,6.69,11.31,10.09,18.7,11.69,9.32,2,19,2.61,28.5,3.72s19.22,2.36,28.85,3.4c8.42.9,17.17,1.48,25.31-1.34,14.87-5.17,22.44-21.62,25.49-35.92.11-.47.2-.94.29-1.4.38-1.94.7-3.89.93-5.85v0c.38-2.76.63-5.53.76-8.33.7-12.72-.56-25.62-1.49-38.27-.68-9.27-1.27-18.57-1-27.89a165.15,165.15,0,0,1,3.56-28.79c1.89-9.23,4.29-18.34,6.64-27.44C173.21,201.48,175.48,192.93,178.05,184.5Z"/></clipPath><clipPath id="clip-path-3"><path class="cls-2" d="M409.5,111.58a76.72,76.72,0,0,0-9.07-3c-21.07-5.43-43.46-1.69-62.62,9a95.51,95.51,0,0,0-20.14,15,52.25,52.25,0,0,1,8,8.1c6.67,8.5,11.06,18.5,14.29,28.75.28.91.56,1.83.83,2.74,0,.07,0,.16.07.23l.23.79c.21.73.41,1.46.61,2.19,3.18,11.64,5.21,23.6,7.17,35.48a796.82,796.82,0,0,1,9.7,90.78c.05,1.07.11,2.15.15,3.22.13,3.12.27,6.26.37,9.39v0c.11,3.2.2,6.39.26,9.59v.06c.16,7.79.22,15.57.14,23.34,0,6.17-.17,12.45.73,18.6.81,5.43,2.4,11.19,6.09,15.41a24.26,24.26,0,0,0,12.61,7.3c6.21,1.62,13.06,1.73,19.19,2.08l46.19,2.71c3.41.19,6.83.49,10.24.55a19,19,0,0,0,7.38-1c5.18-2.05,5.25-8,4.67-12.78-.86-7.11-2.35-14.12-3.05-21.26-.73-7.52-1-15.06-1.09-22.62-.12-30.39,4.39-60.52,5.84-90.83,1.32-27.71,0-56.15-10.08-82.31C449.37,140.35,432.58,120.73,409.5,111.58Z"/></clipPath><clipPath id="clip-path-4"><path class="cls-3" d="M309.61,307.75A52.75,52.75,0,0,1,296,339.47c-6.22,4.23-12.89,6.65-18.32,6.67l-37.77-1.45c-4.27,0-15.38-2.42-20.62-6.87-10.58-10.46-14.27-24.6-13.53-31.37.54-3.11,2.8-12.72,10.08-12.93,22.35,3.93,51.38,7.44,78.69,0C303.38,293.62,307.36,297.39,309.61,307.75Z"/></clipPath></defs><g id="Layer_3" data-name="Layer 3"><polygon class="cls-2" points="290.09 168.94 310.1 132.96 337.93 167.62 335.37 172.78 285.55 172.78 290.09 168.94"/><polygon class="cls-2" points="189.11 168.72 203.85 138.04 224.36 167.58 222.48 171.99 185.75 171.99 189.11 168.72"/><path class="cls-4" d="M285.49,191.15c5.47-1,9.18-5.83,11-10.79a21.85,21.85,0,0,0,1.2-5h36.13s0,0,0,0H297.5a22.5,22.5,0,0,1-1.19,5c-1.82,5-5.52,9.79-11,10.78a4.76,4.76,0,0,1-1.92,0A4.77,4.77,0,0,0,285.49,191.15Z"/><path class="cls-4" d="M246.08,179.94a52.54,52.54,0,0,0,9.13-4.55c1.48-.92,2.93-1.92,4.33-3,1.23-.95,2.42-1.93,3.58-3a67.24,67.24,0,0,0,19.11-31.15c0-.1-.08-.19-.1-.29a67.46,67.46,0,0,1-19.19,31.39q-1.74,1.56-3.58,3-2.1,1.59-4.33,3a54.27,54.27,0,0,1-9.12,4.55,3,3,0,0,1-1.83.16A3,3,0,0,0,246.08,179.94Z"/><path class="cls-4" d="M221.5,169.26a62.5,62.5,0,0,0-5.42-12.14l-8.36-11.54c-1-1.19-2.11-2.33-3.24-3.45-1.88,2.93-3.63,6-5.27,9a165.08,165.08,0,0,0-8,17.58Z"/><path class="cls-4" d="M311.86,133l0,0,0,0S311.86,133,311.86,133Z"/><path class="cls-4" d="M223.21,183.05c1.33-.79,2.61-1.62,3.89-2.51h0a81.57,81.57,0,0,0,6.88-5.15c1.14-.95,2.26-1.95,3.34-3s2.09-1.95,3.07-3a78.25,78.25,0,0,0,6.23-7c.05-.14.11-.31.15-.46a78.26,78.26,0,0,1-6.56,7.44c-1,1-2,2-3.06,3s-2.21,2-3.35,3a77.85,77.85,0,0,1-6.88,5.14h0c-1.28.9-2.56,1.73-3.89,2.52a3.49,3.49,0,0,1-2.56.48A3.42,3.42,0,0,0,223.21,183.05Z"/><path class="cls-4" d="M329.34,162.32c-3.72-9.16-9.08-18.16-16.92-24.34a69.84,69.84,0,0,0-8.23,11.86l0,0a62.73,62.73,0,0,0-3.7,8.14,53.73,53.73,0,0,0-2.81,11.37h34.28C331.14,167,330.28,164.66,329.34,162.32Zm-28.7-4.25a62.13,62.13,0,0,1,3.7-8.14Z"/><path class="cls-4" d="M366.29,381.29c-3.69-4.22-5.28-10-6.09-15.41-.9-6.15-.77-12.43-.73-18.6.08-7.77,0-15.55-.14-23.34v-.06c-.06-3.2-.15-6.39-.26-9.59v0c-.1-3.13-.24-6.27-.37-9.39,0-1.07-.1-2.15-.15-3.22a796.82,796.82,0,0,0-9.7-90.78c-2-11.88-4-23.84-7.17-35.48-.2-.73-.4-1.46-.61-2.19l-.23-.79c0-.07,0-.16-.07-.23-.27-.91-.55-1.83-.83-2.74-3.23-10.25-7.62-20.25-14.29-28.75a52.25,52.25,0,0,0-8-8.1,95.51,95.51,0,0,1,20.14-15c19.16-10.7,41.55-14.44,62.62-9-21.12-5.5-43.59-1.76-62.8,9a95.24,95.24,0,0,0-20.13,15,51.69,51.69,0,0,1,8,8.09c6.67,8.5,11.06,18.5,14.29,28.75.28.91.56,1.83.83,2.74,0,.08.05.16.08.24.07.27.14.52.22.79.21.73.42,1.46.61,2.19,3.18,11.63,5.21,23.6,7.17,35.47a794.49,794.49,0,0,1,9.7,90.79c.05,1.07.11,2.14.15,3.21.14,3.13.27,6.27.37,9.39v0q.17,4.8.26,9.6v.06q.24,11.67.15,23.33c-.05,6.18-.18,12.46.73,18.6.8,5.43,2.39,11.19,6.08,15.42,3.44,3.93,7.92,6.09,12.79,7.34A24.26,24.26,0,0,1,366.29,381.29Z"/><path class="cls-4" d="M221.17,175.39l.08,0H193.12a0,0,0,0,1,0,0Z"/><path d="M220.24,183.41c-2.55-.94-3.83-4.95-.78-6.78.67-.41,1.33-.81,2-1.24h-.26c-.61.42-1.25.8-1.89,1.19C216.16,178.44,217.57,182.61,220.24,183.41Z"/><path d="M339,197.82c-1.4-7.52-3-15-5.07-22.43h-.16c2.08,7.37,3.66,14.88,5.05,22.38A777.83,777.83,0,0,1,350.35,291q1.14,18.33,1.43,36.7v.1s0,0,0,0l-2.54,8.74c-4.68,16-14.65,26.4-25.37,26.4H192.68a17,17,0,0,1-3.57-.39,16.85,16.85,0,0,0,3.75.43H324c10.73,0,20.7-10.37,25.38-26.4l2.54-8.73s0,0,0,0v-.11q-.29-18.34-1.43-36.69A777.58,777.58,0,0,0,339,197.82Z"/><path d="M290.19,169.35a0,0,0,0,0,0,0,23.29,23.29,0,0,1-.13,5.48c0,.16-.05.31-.08.48,0,0,0,0,0,.05-.69,3.65-2.67,7.8-6.64,8.53a3.6,3.6,0,0,0-2.68,3.14,3.66,3.66,0,0,0,.08,1.44,3.53,3.53,0,0,0,2.62,2.55,3.57,3.57,0,0,1-2.45-2.5,3.86,3.86,0,0,1-.07-1.44,3.59,3.59,0,0,1,2.68-3.14c4-.73,5.95-4.88,6.64-8.53,0,0,0,0,0-.06a3.7,3.7,0,0,0,.07-.48,19,19,0,0,0,.23-2.5,21.1,21.1,0,0,0-.09-3s0,0,0-.05a65.75,65.75,0,0,0-2-10.41c-1.71-7.07-3.75-14.07-6.09-20.94,0,.09,0,.16-.07.25,2.29,6.79,4.3,13.68,6,20.64A65.87,65.87,0,0,1,290.19,169.35Z"/><path d="M242.69,172.37c-.33.7-.65,1.38-1,2.07a3.87,3.87,0,0,0-.29.91c-.39,2,.77,4.3,2.68,4.71a4.09,4.09,0,0,1-2.5-4.67,3.71,3.71,0,0,1,.29-.91c.35-.68.67-1.37,1-2.07.46-1,.91-2,1.32-3,1.05-2.44,2-4.93,2.77-7.44l-.33.41c-.77,2.37-1.63,4.69-2.61,7C243.6,170.39,243.15,171.39,242.69,172.37Z"/><path class="cls-5" d="M469.32,173.69c-3.6-12.9-8.92-25.52-16.65-36.51a92.39,92.39,0,0,0-28-26.27A88,88,0,0,0,349.73,104c-23.54,8.44-45.52,25.65-55.28,49.15a237,237,0,0,0-9.9-29.87c-1.56-3.88-6.93-3.36-7.31,1-1.44,16.9-10.43,34.56-24.86,44.12a102.84,102.84,0,0,0,5.89-25.58c.36-3.66-5.36-5.08-6.93-1.88a89.55,89.55,0,0,1-19.7,26.47c-.75.67-1.52,1.34-2.3,2-.1-.35-.2-.71-.32-1.07-5.3-17.24-17-31.75-31.89-41.78a114.42,114.42,0,0,0-26.34-12.8,125.59,125.59,0,0,0-27.56-6.56c-9.39-1.06-19.17-.57-28.16,2.51a57,57,0,0,0-22.33,14.5c-12.4,12.79-20,29.33-27.68,45.16-8.23,17-17.29,36-33.69,46.6a3.74,3.74,0,0,0,2.86,6.81l27.07-5.56c4.83,32.27-1.36,66.71-18.2,94.71-4.6,7.61-10.17,14.65-14,22.7S23,351.87,24.59,360.92c1.44,8.22,6.77,15.15,13.79,19.48,7.93,4.9,17.37,5.85,26.43,6.92l30.47,3.6c9.26,1.09,18.63,2.68,28,2.52,8.8-.17,17.56-2.28,24.66-7.65a50.64,50.64,0,0,0,14.73-18.48A74.8,74.8,0,0,0,167,356.22c.3-1,.57-1.89.82-2.86.05-.16.09-.34.14-.52.53.84,1.08,1.65,1.66,2.47l.18.25c.11.15.21.3.33.44,6.06,8.21,14,13,22.59,13H323.87c11.26,0,21.62-8.45,27.91-22.13-.18,10.64-.19,21.62,3.93,31.4a28.66,28.66,0,0,0,12.22,14c5.29,3,11.29,4.24,17.27,5,7,.81,14.15,1,21.21,1.41l24,1.4c7.63.45,15.26,1.06,22.91,1.32,5.66.21,11.86-.5,16.1-4.64,5.14-5,5-12.44,4.07-19-1.08-7.33-2.42-14.55-3-22-2.56-31.18,1.58-62.34,4-93.39C476.72,232.74,477.34,202.49,469.32,173.69ZM312,133s0,0,0,0a.08.08,0,0,0,0,0Zm-.18,0s0,0,0,0l0,0Zm-11.4,25a62.73,62.73,0,0,1,3.7-8.14l0,0A69.84,69.84,0,0,1,312.42,138c7.84,6.18,13.2,15.18,16.92,24.34.94,2.34,1.8,4.69,2.59,7.07H297.65A53.73,53.73,0,0,1,300.46,158Zm-96-15.89c1.13,1.12,2.22,2.26,3.24,3.45l8.36,11.54a62.5,62.5,0,0,1,5.42,12.14l-30.24-.52a165.08,165.08,0,0,1,8-17.58C200.85,148.08,202.6,145.06,204.48,142.13Zm-40.12,95.33a165.15,165.15,0,0,0-3.56,28.79c-.23,9.32.36,18.62,1,27.89.93,12.65,2.19,25.55,1.49,38.27-.13,2.8-.38,5.57-.76,8.33v0c-.23,2-.55,3.91-.93,5.85-.09.46-.18.93-.29,1.4-3,14.3-10.62,30.75-25.49,35.92-8.14,2.82-16.89,2.24-25.31,1.34-9.63-1-19.24-2.27-28.85-3.4s-19.18-1.69-28.5-3.72c-7.39-1.6-14.64-5-18.7-11.69-4.23-7-3.53-15.61-1-23.07,2.71-8.2,8-15.27,12.67-22.41,18.55-28.15,26.63-62.88,23.52-96.39-.38-4.29-1-8.58-1.71-12.83-.37-2.07-2.76-3-4.58-2.59L46.8,212.56C55,204,61.24,193.37,66.65,182.83c7.93-15.46,14.53-31.78,24.93-45.83a61.33,61.33,0,0,1,16.84-16.07,49.23,49.23,0,0,1,25.39-6.85,92.58,92.58,0,0,1,26.52,4.09,126.6,126.6,0,0,1,25.26,10,83.62,83.62,0,0,1,13.29,8.88,160.59,160.59,0,0,0-16.1,33.2c-.37,1-.73,2-1.05,3s-.7,2-1,3q-1.38,4.11-2.65,8.25c-2.57,8.43-4.84,17-7.05,25.52C168.65,219.12,166.25,228.23,164.36,237.46ZM352,327.89s0,0,0,0l-2.54,8.73c-4.68,16-14.65,26.4-25.38,26.4H192.86a16.85,16.85,0,0,1-3.75-.43c-.49-.12-1-.25-1.49-.4a24.76,24.76,0,0,1-11.19-7.93c-.46-.53-.9-1.06-1.3-1.61a40.62,40.62,0,0,1-3.52-5.49.61.61,0,0,0,0,.13,36.05,36.05,0,0,1-1.82-3.69c.24-1.59.43-3.17.6-4.78,2.78-26.63-4-54.74-1.61-81.27A198.67,198.67,0,0,1,173.88,229c2.22-9.21,4.6-18.39,7.07-27.53,2.28-8.45,4.7-16.89,7.58-25.18.1-.29.2-.61.31-.9h32.41l-.08,0h.26c-.64.43-1.3.83-2,1.24-3.05,1.83-1.77,5.84.78,6.78l.23.08A3.49,3.49,0,0,0,223,183c1.33-.79,2.61-1.62,3.89-2.52h0a77.85,77.85,0,0,0,6.88-5.14q1.71-1.44,3.35-3c1.05-1,2.08-2,3.06-3a78.26,78.26,0,0,0,6.56-7.44c0,.15-.1.32-.15.46L247,162c-.8,2.51-1.72,5-2.77,7.44-.41,1-.86,2-1.32,3-.33.7-.65,1.39-1,2.07a3.71,3.71,0,0,0-.29.91,4.09,4.09,0,0,0,2.5,4.67,3,3,0,0,0,1.83-.16,54.27,54.27,0,0,0,9.12-4.55q2.23-1.4,4.33-3,1.84-1.43,3.58-3A67.46,67.46,0,0,0,282.13,138c0,.1.07.19.1.29,0-.09,0-.16.07-.25,2.34,6.87,4.38,13.87,6.09,20.94a65.75,65.75,0,0,1,2,10.41s0,0,0,.05a21.1,21.1,0,0,1,.09,3,19,19,0,0,1-.23,2.5,3.7,3.7,0,0,1-.07.48s0,0,0,.06c-.69,3.65-2.67,7.8-6.64,8.53a3.59,3.59,0,0,0-2.68,3.14,3.86,3.86,0,0,0,.07,1.44,3.57,3.57,0,0,0,2.45,2.5h0a4.76,4.76,0,0,0,1.92,0c5.48-1,9.18-5.83,11-10.78a22.5,22.5,0,0,0,1.19-5h36.29s0,0,0,0H334c2.1,7.38,3.67,14.91,5.07,22.43a777.58,777.58,0,0,1,11.49,93.27q1.14,18.32,1.43,36.69Zm116.31-82.41c-1.45,30.31-6,60.44-5.84,90.83.05,7.56.36,15.1,1.09,22.62.7,7.14,2.19,14.15,3.05,21.26.58,4.75.51,10.73-4.67,12.78a19,19,0,0,1-7.38,1c-3.41-.06-6.83-.36-10.24-.55l-46.19-2.71c-6.13-.35-13-.46-19.19-2.08-4.87-1.25-9.35-3.41-12.79-7.34-3.69-4.23-5.28-10-6.08-15.42-.91-6.14-.78-12.42-.73-18.6q.1-11.66-.15-23.33v-.06q-.09-4.8-.26-9.6v0c-.1-3.12-.23-6.26-.37-9.39,0-1.07-.1-2.14-.15-3.21a794.49,794.49,0,0,0-9.7-90.79c-2-11.87-4-23.84-7.17-35.47-.19-.73-.4-1.46-.61-2.19-.08-.27-.15-.52-.22-.79,0-.08-.05-.16-.08-.24-.27-.91-.55-1.83-.83-2.74-3.23-10.25-7.62-20.25-14.29-28.75a51.69,51.69,0,0,0-8-8.09,95.24,95.24,0,0,1,20.13-15c19.21-10.72,41.68-14.46,62.8-9a76.72,76.72,0,0,1,9.07,3c23.08,9.15,39.87,28.77,48.69,51.59C468.28,189.33,469.59,217.77,468.27,245.48Z"/><path class="cls-1" d="M323.87,363c10.72,0,20.69-10.38,25.37-26.4l2.54-8.74s0,0,0,0v-.1q-.28-18.35-1.43-36.7a777.83,777.83,0,0,0-11.49-93.27c-1.39-7.5-3-15-5.05-22.38H297.68a21.85,21.85,0,0,1-1.2,5c-1.81,5-5.52,9.79-11,10.79a4.77,4.77,0,0,1-2.1-.08h0a3.53,3.53,0,0,1-2.62-2.55,3.66,3.66,0,0,1-.08-1.44,3.6,3.6,0,0,1,2.68-3.14c4-.73,5.95-4.88,6.64-8.53,0,0,0,0,0-.05,0-.17.06-.32.08-.48a23.29,23.29,0,0,0,.13-5.48,0,0,0,0,1,0,0,65.87,65.87,0,0,0-2-10.42c-1.68-7-3.69-13.85-6-20.64a67.24,67.24,0,0,1-19.11,31.15c-1.16,1-2.35,2-3.58,3-1.4,1.06-2.85,2.06-4.33,3a52.54,52.54,0,0,1-9.13,4.55,3,3,0,0,1-2,.12c-1.91-.41-3.07-2.75-2.68-4.71a3.87,3.87,0,0,1,.29-.91c.35-.69.67-1.37,1-2.07.46-1,.91-2,1.33-3,1-2.29,1.84-4.61,2.61-7a78.25,78.25,0,0,1-6.23,7c-1,1-2,2-3.07,3s-2.2,2-3.34,3a81.57,81.57,0,0,1-6.88,5.15h0c-1.28.89-2.56,1.72-3.89,2.51a3.42,3.42,0,0,1-2.74.44l-.23-.08c-2.67-.8-4.08-5-1-6.83.64-.39,1.28-.77,1.89-1.19h-28a0,0,0,0,0,0,0h-4.28c-.11.29-.21.61-.31.9-2.88,8.29-5.3,16.73-7.58,25.18-2.47,9.14-4.85,18.32-7.07,27.53a198.67,198.67,0,0,0-5.13,28.62c-2.4,26.53,4.39,54.64,1.61,81.27-.17,1.61-.36,3.19-.6,4.78a36.05,36.05,0,0,0,1.82,3.69.61.61,0,0,1,0-.13,40.62,40.62,0,0,0,3.52,5.49c.4.55.84,1.08,1.3,1.61a24.76,24.76,0,0,0,11.19,7.93c.5.15,1,.28,1.49.4a17,17,0,0,0,3.57.39Z"/><g class="cls-6"><path class="cls-7" d="M277,136.62a77.78,77.78,0,0,1,2.35,43.94c-1.79,7.51,9.78,10.71,11.58,3.19a89.64,89.64,0,0,0-2.36-50.32c-2.52-7.25-14.11-4.13-11.57,3.19Z"/><path class="cls-7" d="M326.71,176.39c13.6,33.67,23.85,69.66,21.58,106.32-1.92,31.1-13.54,62.06-36.24,83.92-5.57,5.37,2.92,13.84,8.49,8.48,24.26-23.36,36.81-56.07,39.53-89.23,3.16-38.66-7.44-77.15-21.79-112.68-2.85-7.07-14.46-4-11.57,3.19Z"/><path class="cls-7" d="M177.24,171c-8.23,31.59-10.42,64.26-12.12,96.73-1.53,29.37-2.35,60.87,13.68,86.84,7.64,12.39,18.34,22.05,31.81,27.63,7.13,3,10.24-8.65,3.19-11.57-32-13.25-38-52.73-37.46-83,.62-37.76,2.92-76.76,12.47-113.41,1.95-7.48-9.62-10.67-11.57-3.19Z"/><path class="cls-7" d="M244.4,177.55l4.44-17.05a2.5,2.5,0,0,0-4.82-1.33l-4.44,17.05a2.5,2.5,0,1,0,4.82,1.33Z"/></g><path class="cls-2" d="M178.05,184.5q1.27-4.14,2.65-8.25c.33-1,.67-2,1-3s.68-2,1.05-3a160.59,160.59,0,0,1,16.1-33.2,83.62,83.62,0,0,0-13.29-8.88,126.6,126.6,0,0,0-25.26-10,92.58,92.58,0,0,0-26.52-4.09,49.23,49.23,0,0,0-25.39,6.85A61.33,61.33,0,0,0,91.58,137c-10.4,14.05-17,30.37-24.93,45.83C61.24,193.37,55,204,46.8,212.56l16.55-3.39c1.82-.37,4.21.52,4.58,2.59.73,4.25,1.33,8.54,1.71,12.83,3.11,33.51-5,68.24-23.52,96.39-4.7,7.14-10,14.21-12.67,22.41-2.48,7.46-3.18,16.09,1,23.07,4.06,6.69,11.31,10.09,18.7,11.69,9.32,2,19,2.61,28.5,3.72s19.22,2.36,28.85,3.4c8.42.9,17.17,1.48,25.31-1.34,14.87-5.17,22.44-21.62,25.49-35.92.11-.47.2-.94.29-1.4.38-1.94.7-3.89.93-5.85v0c.38-2.76.63-5.53.76-8.33.7-12.72-.56-25.62-1.49-38.27-.68-9.27-1.27-18.57-1-27.89a165.15,165.15,0,0,1,3.56-28.79c1.89-9.23,4.29-18.34,6.64-27.44C173.21,201.48,175.48,192.93,178.05,184.5Z"/><g class="cls-8"><path class="cls-9" d="M196.12,131.32A160,160,0,0,0,164,179.89C148.13,217.2,146.62,260.14,126,295c-18.68,31.59-52.79,53.55-89.28,57.47,1.53,13.26,15,22.69,28.32,23.65s26.21-4.67,37.79-11.28c9.08-5.19,17.84-11.13,25.11-18.64,13.77-14.21,21.43-33.1,28.76-51.48,7.25-18.19,14.57-36.6,17.37-56,3-20.5.78-41.34-1.4-61.93A1053.83,1053.83,0,0,1,139.93,289.6c-4.18,11.87-8.68,23.87-16.47,33.75C106.9,344.32,79,351.9,53,358.26,58.69,364,64.83,369.54,72.16,373s16,4.6,23.53,1.54,13.22-10.91,12.31-18.95A65.07,65.07,0,0,0,60,370.4c15.84,5.48,34.73.59,45.91-11.89l-12.19,23,27-9.58-2.46,6.3,17.19-18.86-16,25.47a30.34,30.34,0,0,1,18.53-18.28A99.05,99.05,0,0,0,168.38,296c-11,12.94-13.06,31-16.73,47.61s-11.25,34.69-27.2,40.64c-2.72,1-6.23,1.44-8.14-.75-1.69-1.94-1.17-5.07.4-7.11s3.94-3.26,6.15-4.57a63.75,63.75,0,0,0,30.57-49.06"/><path class="cls-9" d="M190.82,126a168.1,168.1,0,0,0-33,49.29c-7.81,18-12.38,37.09-17.06,56.12-4.52,18.38-9.2,37-18,53.93a110.4,110.4,0,0,1-32.94,38.48c-15.61,11.3-33.92,19-53.13,21.16-5.26.61-8,4.29-7.24,9.5,2.65,17.95,21.11,29.08,38.16,29.24,20.18.2,40.27-11.51,55.76-23.52,16-12.45,26.2-29.46,34.12-47.88,8.21-19.09,16.5-38.74,21.34-59,6.06-25.33,4-50.89,1.31-76.51-.83-7.81-12.67-10.88-14.73-2q-11.19,48.32-26.81,95.45c-4.74,14.24-9,29.29-16.8,42.23-6.72,11.16-16.81,19-28.36,24.74C80.12,343.89,65.42,347.49,51,351c-5.54,1.36-7.2,8.62-3.31,12.53,10.87,11,24.62,21.44,41,20.12,14.51-1.18,27.82-12.7,26.81-28.11-.28-4.33-3.22-7.12-7.5-7.5-19.45-1.75-38.37,4.7-53.35,17C50,368.91,53.07,376.05,58,377.64a51.76,51.76,0,0,0,53.2-13.83l-11.78-9.08-12.18,23c-2.84,5.36,2,13.33,8.47,11l27-9.59L113.44,370l-2.46,6.3c-2.76,7.06,7.69,12.6,12.53,7.29l17.19-18.86-11.78-9.09-16,25.47,13.7,5.78a23.07,23.07,0,0,1,6.77-9.29c3.42-2.84,7.8-3.76,11-6.8a99.49,99.49,0,0,0,16.93-21.85,107.93,107.93,0,0,0,14.55-53c.07-6.07-8.56-10.47-12.8-5.31-10.64,12.93-14.08,28.62-17.34,44.64-2.6,12.76-5.74,27-15.41,36.41a24.27,24.27,0,0,1-7.15,5,10.88,10.88,0,0,1-1.93.71c-1.67.3-1.16,1.39,1.51,3.29.69.09,3.27-2,3.89-2.4a71.15,71.15,0,0,0,16.43-13.61,73,73,0,0,0,17.85-41.93c.87-9.61-14.13-9.55-15,0a56.29,56.29,0,0,1-16,34.06c-7.67,7.79-29.72,16.11-20.08,30.46,8.41,12.52,26.5.64,33.39-7.39,8.32-9.68,12.9-21.95,15.66-34.28,3.33-14.9,4.73-32.07,14.8-44.31l-12.8-5.3a92.67,92.67,0,0,1-15.49,50.2,84.14,84.14,0,0,1-7.7,10c-.72.79-1.45,1.58-2.2,2.35-.19.2-2.15,2.24-1.33,1.58,1.07-.85-2.32,1-2.79,1.2-.9.43-1.78.88-2.64,1.39-7.87,4.65-13.31,11.83-16.56,20.27-3.16,8.19,9.36,12.7,13.71,5.78l16-25.48c4.49-7.14-6-15.43-11.78-9.09L112.9,373l12.54,7.3L127.9,374c2-5.21-4.12-11-9.22-9.22l-27,9.58,8.47,11,12.19-23c3.84-7.28-5.76-15.56-11.78-9.09a36.81,36.81,0,0,1-38.61,10l3.31,12.54c12-9.87,27.4-14,42.74-12.64l-7.5-7.5c.6,9.18-8.16,13.94-16.44,13.13-10.44-1-18.7-8.65-25.73-15.74L55,365.49c26.27-6.45,55.45-14.29,73.27-36.25,10.22-12.61,15.54-27.95,20.77-43.1q8.5-24.57,15.77-49.54,8.35-28.66,15.06-57.77l-14.73-2c2.1,19.8,4.4,40.07,1.67,59.93-2.59,18.82-9.71,36.74-16.7,54.28-6.19,15.55-12.43,31.86-23.13,45-10.87,13.32-27.38,24.17-43.59,29.8-8.31,2.89-17.48,4.34-25.88,1-7.23-2.9-12.45-8.54-13.59-16.3L36.71,360a129.21,129.21,0,0,0,90.85-53.6c23.28-33,26.16-74.61,38.84-111.89a156.42,156.42,0,0,1,35-57.89c6.68-7-3.92-17.6-10.6-10.6Z"/><path class="cls-9" d="M253.59,410.85c9.66,0,9.67-15,0-15s-9.66,15,0,15Z"/><path class="cls-9" d="M253.59,410.85c9.66,0,9.67-15,0-15s-9.66,15,0,15Z"/></g><path class="cls-2" d="M409.5,111.58a76.72,76.72,0,0,0-9.07-3c-21.07-5.43-43.46-1.69-62.62,9a95.51,95.51,0,0,0-20.14,15,52.25,52.25,0,0,1,8,8.1c6.67,8.5,11.06,18.5,14.29,28.75.28.91.56,1.83.83,2.74,0,.07,0,.16.07.23l.23.79c.21.73.41,1.46.61,2.19,3.18,11.64,5.21,23.6,7.17,35.48a796.82,796.82,0,0,1,9.7,90.78c.05,1.07.11,2.15.15,3.22.13,3.12.27,6.26.37,9.39v0c.11,3.2.2,6.39.26,9.59v.06c.16,7.79.22,15.57.14,23.34,0,6.17-.17,12.45.73,18.6.81,5.43,2.4,11.19,6.09,15.41a24.26,24.26,0,0,0,12.61,7.3c6.21,1.62,13.06,1.73,19.19,2.08l46.19,2.71c3.41.19,6.83.49,10.24.55a19,19,0,0,0,7.38-1c5.18-2.05,5.25-8,4.67-12.78-.86-7.11-2.35-14.12-3.05-21.26-.73-7.52-1-15.06-1.09-22.62-.12-30.39,4.39-60.52,5.84-90.83,1.32-27.71,0-56.15-10.08-82.31C449.37,140.35,432.58,120.73,409.5,111.58Z"/><g class="cls-10"><path class="cls-9" d="M296.63,126.74a65.93,65.93,0,0,1,9.67,8.32,123.48,123.48,0,0,1,9.54,11c6.45,8.65,12.37,17.71,18.29,26.73,11.71,17.84,22.43,35.43,27.73,55.37,3,11.28,3.69,22,4.8,33.67a238,238,0,0,0,6,37.05c5.66,22,15,44,28.86,62.14,16,20.83,38.36,35.44,65,37.19L459,370.24A58.06,58.06,0,0,1,423.84,380c-1.11,0-2.22-.11-3.33-.18-.44,0-2.55-.23-1,0a55.9,55.9,0,0,1-7.15-1.45c-2-.5-3.94-1.1-5.87-1.78-.25-.08-2.84-1-1.79-.61s-1.48-.67-1.72-.79a83.17,83.17,0,0,1-11.24-6.58c-.5-.33-1.87-1.4-.64-.43-.8-.63-1.58-1.3-2.35-2q-2.31-2-4.44-4.23a39.44,39.44,0,0,1-7.09-9L364.3,375.49l7.57-.05-10.6-25.6c-14.45,14.56-4.41,37.34,13.42,42.93,7.61,2.39,15.8,1.86,23.65,1.66l24.87-.65a15,15,0,0,0,14.74-13c.95-7.13-3.45-14.69-10.75-16.46-1.84-.45-3.66-.94-5.45-1.54-.9-.29-1.78-.61-2.66-.95q2.1.94-.31-.15a72.45,72.45,0,0,1-8.59-4.84c-.79-.52-1.56-1.06-2.32-1.62,1.16.93,1.05.84-.31-.26s-2.85-2.47-4.2-3.79q-1.53-1.49-2.95-3.06c-.36-.39-3.81-4.65-2.15-2.44a69.63,69.63,0,0,1-5.34-8.36c-.91-1.65-1.75-3.35-2.51-5.08,1.17,2.68-.84-2.49-1-3a66.89,66.89,0,0,1-2.33-9.58c.54,3.2-.17-2.42-.2-3-.08-1.89-.06-3.78,0-5.67l-27.95,7.57,18.23,37.29c3.24,6.63,12.37,8.94,18.73,6.14a15.05,15.05,0,0,0,8.69-17.7L358.76,170.82l-28.93,8c8.64,31.16,18.71,62.29,25.34,94,2.87,13.72,4.36,27.64,2.59,41.93.28-2.24-.44,2.56-.43,2.49-.3,1.6-.63,3.2-1,4.79a87,87,0,0,1-2.78,9.34s-1.87,4.44-.94,2.4c-.66,1.47-1.39,2.91-2.16,4.33-.89,1.65-1.86,3.27-2.89,4.85-.32.5-2.92,4-2,2.83l25.07,14.6c6.64-17.27,4-35.94,1-53.66-.67-4.05-1.36-8.1-2-12.15-.14-.88-.33-2.21-.11-.55-.13-1-.25-2-.36-3-.22-2-.4-4-.52-6a73.86,73.86,0,0,1,.22-12.53c.28-2.45-.42,2.07.11-.34.21-1,.39-1.91.62-2.86a53.5,53.5,0,0,1,2-6.32c2.83-7.34-3.11-16.78-10.48-18.46-8.58-1.95-15.42,2.62-18.45,10.48-6.65,17.26-4,35.94-1,53.65.67,4,1.39,8.09,2,12.15.16,1,.31,2,.44,3-.21-1.65,0-.36,0,.54.2,2,.4,4,.52,6a74.91,74.91,0,0,1-.22,12.53c-.27,2.46.43-2.06-.1.35-.21.95-.39,1.91-.62,2.86a55.36,55.36,0,0,1-2,6.32c-2.35,6.11,1.56,13.83,6.89,16.94s14.07,2.77,18.18-2.34c21.81-27.16,24.52-61.28,18.74-94.58-2.93-16.92-7.91-33.44-12.49-50l-14.3-51.55a15,15,0,0,0-28.93,8l45.82,173.43,27.42-11.56-18.24-37.29c-2.88-5.89-10.89-8.55-16.94-6.89a15.42,15.42,0,0,0-11,14.46c-1.39,37.53,25.88,73.45,62.35,82.31l4-29.47c-10.72.28-21.45.67-32.17.83a53,53,0,0,1-6.3-.14c2.75.29-3.69-1.23-1.3-.31-1.24-.48-1.77-.9-.19-.07.89,1.22,1.06,1.38.51.46-.41-.76-.4-.74,0,.05a6.32,6.32,0,0,1-1.3,6.45c9.09-9.16,2.47-25.7-10.61-25.61l-7.57.05c-11,.08-19.17,12.81-12.95,22.58,12.12,19.05,31.06,33.55,53.06,39.2a89.72,89.72,0,0,0,69.69-11.12c12.92-8.22,7.2-27-7.58-28,.49,0-4.73-.49-2.82-.21s-3.25-.68-2.77-.57a63.52,63.52,0,0,1-6.21-1.74A52.32,52.32,0,0,1,443,359.79c-1.15-.73-2.26-1.5-3.37-2.28-.1-.07-2.19-1.7-.84-.62-1.92-1.54-3.74-3.2-5.5-4.92a82.73,82.73,0,0,1-9-10.33c-12.22-17.83-19.8-36.73-24.37-57.88-4.72-21.88-3.56-45.54-10.32-67.75C383.2,195,372,175.88,360,157.63c-13.71-20.89-27.36-42.37-48.26-56.8-6.67-4.6-16.65-1.24-20.52,5.38-4.36,7.45-1.31,15.91,5.38,20.53Z"/><path class="cls-9" d="M373,455c9.65,0,9.67-15,0-15s-9.67,15,0,15Z"/><path class="cls-9" d="M373,455c9.65,0,9.67-15,0-15s-9.67,15,0,15Z"/></g><path class="cls-3" d="M304.34,149.93a62.13,62.13,0,0,0-3.7,8.14Z"/><path d="M312,133l0,0a.08.08,0,0,1,0,0S312,133,312,133Z"/><path class="cls-11" d="M235.62,256.23l-38.75,5.51-3.36-31.44c-1.32-12.34,6.28-23.59,17-25.11h0c10.7-1.52,20.44,7.25,21.76,19.59Z"/><path class="cls-12" d="M238.57,255.91l-3.36-31.44a26.21,26.21,0,0,0-9.59-17.95,20.42,20.42,0,0,0-15.55-4.27c-12.24,1.74-21,14.46-19.52,28.36l3.36,31.44a3,3,0,0,0,3,2.67l.42,0L236,259.17A3,3,0,0,0,238.57,255.91Zm-16.93-.7-3.72.54-1,.14-.68.11h0l-7.47,1.06-9.19,1.3-3-28.37c-1.14-10.76,5.33-20.55,14.44-21.85a12.94,12.94,0,0,1,2-.15,14.84,14.84,0,0,1,9.09,3.22,20.3,20.3,0,0,1,7.34,13.9l0,.44,3,28.14-10.7,1.52Z"/><path class="cls-12" d="M216.63,255.5a26.55,26.55,0,0,1-4.49-22.68c.72-2.61,2.34-6.5,5.22-6.86,3.54-.45,6.08,3.8,7.33,6.47,1.82,3.9,3.32,8.68,3.2,13-.08,3-1.71,5.95-4.76,5.7s-4.82-3.77-5.4-6.62a16.68,16.68,0,0,1,2.62-11.86,4.32,4.32,0,0,0,.37-.58c.45-1.22.65.16,0-.56-1.17-1.25-.54-.3-.65.5a22.49,22.49,0,0,1-1.45,4.33l-1.4,3.84c-1.77,4.89-4.11,10.11-.43,14.72,1.25,1.57,4,1.31,5.26,0,1.55-1.55,1.26-3.68,0-5.26.15.18.15.23.14,0a4.75,4.75,0,0,1,.1-1.2,29.22,29.22,0,0,1,1.41-4.3c1.11-3.05,2.38-6.08,3.3-9.19s.78-6.64-1.6-9c-2.58-2.55-6.58-2.06-9.16.18-2.3,2-3.69,5.17-4.71,8a23,23,0,0,0-1.39,9c.31,5.48,2.87,11.52,8,14.15a11.57,11.57,0,0,0,15.12-4.1c3.39-5.45,2.1-12.31.33-18.06s-4.35-11.85-9.81-14.89-11.51-1.52-15.24,3.33-5,11.81-4.57,17.92a33.11,33.11,0,0,0,6.29,17.83c1.21,1.6,3.21,2.43,5.09,1.33,1.57-.92,2.55-3.48,1.33-5.09Z"/><path class="cls-11" d="M325.52,256.52l-39-2.47,1.5-31.63c.59-12.42,9.79-21.94,20.56-21.26h0c10.76.68,19,11.31,18.42,23.73Z"/><path class="cls-12" d="M308.79,198.19a20.81,20.81,0,0,0-15.21,5.44,26.72,26.72,0,0,0-8.51,18.65l-1.5,31.64a3,3,0,0,0,2.78,3.11l39,2.47h.2a3,3,0,0,0,2-.76,3,3,0,0,0,1-2.07L330,225C330.65,211,321.14,199,308.79,198.19ZM324,224.75v.09l-1.35,28.52-11.16-.71h0l-3.52-.22-.91-.06-.77-.05-7.47-.47-9.2-.58L291,222.56a20.77,20.77,0,0,1,6.55-14.49,14.81,14.81,0,0,1,10.84-3.93C317.54,204.7,324.56,214,324,224.75Z"/><path class="cls-12" d="M306.7,251.25c-3.6-6.92-4.07-16.29-.42-23.32a11.82,11.82,0,0,1,3.06-4,3.54,3.54,0,0,1,3.22-.81c3.39.91,5,5,5.86,8.12,1.1,4.12,2.09,9.2,1.1,13.41-.76,3.2-2.92,5.51-6,4.1-2.77-1.26-3.79-5.22-3.8-8a16.12,16.12,0,0,1,4.13-10.4c.24-.26.48-.53.75-.77a.89.89,0,0,1,.5-.34c0,.05,0,.07-.12.05,0,.33-1.23-.53-1-.63s-.06.87-.08.91a11.49,11.49,0,0,1-1.28,2.58l-2.3,4.09c-2.53,4.51-6.25,9.74-3.39,15,2.29,4.2,8.72.45,6.42-3.76-.66-1.21,1.77-4.56,2.41-5.72a90.28,90.28,0,0,0,4.77-8.74c1.21-2.85,1.37-6.26-.67-8.79a6.75,6.75,0,0,0-8.75-1.27c-2.46,1.48-4.34,4.15-5.73,6.6a23.85,23.85,0,0,0-2.94,8.81c-.66,5.34.86,11.46,5,15.15,4.39,3.9,11.26,4.22,15.57,0,5-4.84,4.53-12.39,3.65-18.67-.81-5.71-2.36-12-6.92-16-4.74-4.07-10.86-4.3-15.66-.2s-6.84,10.94-7.5,17a34.29,34.29,0,0,0,3.7,19.31c2.21,4.25,8.63.49,6.42-3.76Z"/><path d="M315.52,306.91c-2.84-13.57-9.23-19.36-21.37-19.36a3,3,0,0,0-.79.12c-20.59,5.69-44.25,5.67-76.75-.07a3.15,3.15,0,0,0-.52-.05c-8.23,0-14.27,6.73-16.19,18a.45.45,0,0,0,0,.16c-1.09,9.29,3.92,25.22,15.34,36.44l.13.14c3.39,2.91,8.29,5,12.93,6.38a46.48,46.48,0,0,0,11.54,2l37.72,1.44h.1c9.18,0,17.76-5,22-7.9a3.49,3.49,0,0,0,.49-.45,58.67,58.67,0,0,0,15.42-36A3.16,3.16,0,0,0,315.52,306.91ZM296,339.47c-6.22,4.23-12.89,6.65-18.32,6.67l-37.77-1.45c-4.27,0-15.38-2.42-20.62-6.87-10.58-10.46-14.27-24.6-13.53-31.37.54-3.11,2.8-12.72,10.08-12.93,22.35,3.93,51.38,7.44,78.69,0,8.84.1,12.82,3.87,15.07,14.23A52.75,52.75,0,0,1,296,339.47Z"/><path class="cls-3" d="M309.61,307.75A52.75,52.75,0,0,1,296,339.47c-6.22,4.23-12.89,6.65-18.32,6.67l-37.77-1.45c-4.27,0-15.38-2.42-20.62-6.87-10.58-10.46-14.27-24.6-13.53-31.37.54-3.11,2.8-12.72,10.08-12.93,22.35,3.93,51.38,7.44,78.69,0C303.38,293.62,307.36,297.39,309.61,307.75Z"/><g class="cls-13"><path class="cls-14" d="M192.64,306.65c8.93,26.4,33.15,44,60.42,47.44a91,91,0,0,0,45.62-6.42c6.51-2.68,12-6.3,16.24-12,4.59-6.18,7.25-13.6,10.25-20.62s-7.34-13.14-10.37-6.05C310,320.36,306.27,331.7,294,336.7a80.49,80.49,0,0,1-39.2,5.6c-22.37-2.55-43.26-17.13-50.6-38.84-2.47-7.27-14.06-4.15-11.57,3.19Z"/></g><path class="cls-12" d="M247.76,315.24c4.86-3.61,10.61-3.79,16.43-3.12,1.43.17,2.85.4,4.27.64.94.15,1.27.51.42-.44a1.49,1.49,0,0,1-.17-.38l0-.16a6,6,0,0,1-.24.83,14.2,14.2,0,0,1-4.08,5.05A11.51,11.51,0,0,1,253,319.52a13.8,13.8,0,0,1-5.59-4.21,8.3,8.3,0,0,1-1.58-2.77c-.19-.71-.15-.55-.1-.36v-.45a.15.15,0,0,1,0,.16c0,.05-.21.22-.27.24-.31.07.45-.33,0,0,.61-.41-.1,0,.26-.05a7.54,7.54,0,0,1,.95,0c-.57-.05,0,0,.14,0l1.29.3,5.61,1.35,11.23,2.71a3.81,3.81,0,0,0,4.58-2.6,3.76,3.76,0,0,0-2.6-4.57l-12.91-3.12c-3.73-.9-8-2.55-11.75-.77-4.41,2.11-4.53,7.39-2.65,11.28a20.6,20.6,0,0,0,7.59,8.1,18.82,18.82,0,0,0,20.41-.28,21.85,21.85,0,0,0,7.44-8.27c2-4,1.39-9.37-3.69-10.54A50.76,50.76,0,0,0,257,304.42a24.47,24.47,0,0,0-13,4.39,3.84,3.84,0,0,0-1.33,5.09c.93,1.59,3.47,2.54,5.09,1.34Z"/><path class="cls-12" d="M266.74,312.07l-5.39,4.2c-.87.67-1.27,1-1.94,1.47-.32.22-.65.42-1,.62s-.45.23-.14.08q-.66.15-.09.09c-.46,0-.48,0-.06.08a3.18,3.18,0,0,1-.51-.13c-.25-.08-.22-.06.07.06a6.48,6.48,0,0,1-.64-.34c-.21-.13-.42-.27-.62-.42.25.2.21.15-.14-.13s-.57-.53-.85-.81c-1.43-1.43-2.77-3-4.08-4.52-.33-.38-.65-.76-1-1.15-.19-.22-.37-.44-.55-.67s-.36-.45-.19-.22l-.21-.33q-5.5,3-2.88,3.61c-.44-.19-.48-.18-.11,0,.19.13.38.26.56.4a32.07,32.07,0,0,0,4.83,2.85,34.5,34.5,0,0,0,12,3.26l-1-7.31-7.27,2.73a3.8,3.8,0,0,0-2.6,4.58c.58,1.77,2.63,3.33,4.58,2.6l7.26-2.73a3.74,3.74,0,0,0-1-7.31l-.77-.07s-.63-.08-.28,0-.27-.05-.27-.05l-.77-.13c-.89-.18-1.78-.39-2.65-.65s-1.75-.56-2.6-.89l-.29-.12c.34.15-.4-.19-.46-.22-.42-.19-.84-.4-1.25-.61-1.64-.86-3.07-2.09-4.7-2.94-2.38-1.24-5.46-1.06-6.94,1.47-1.64,2.8.07,5.37,1.83,7.52q1.92,2.32,3.94,4.55c2.89,3.17,6.6,6.47,11.25,5.24,2.4-.64,4.27-2.29,6.17-3.77l5.93-4.62c1.55-1.2,1.36-4,0-5.26a3.84,3.84,0,0,0-5.26,0Z"/><path class="cls-12" d="M234.22,337.66a39.59,39.59,0,0,0,28,3.5,42.69,42.69,0,0,0,21.78-14,3.83,3.83,0,0,0,0-5.26,3.75,3.75,0,0,0-5.26,0,36.18,36.18,0,0,1-17.94,11.91,31.63,31.63,0,0,1-22.8-2.6c-4.25-2.2-8,4.21-3.76,6.42Z"/></g></svg>