<svg xmlns="http://www.w3.org/2000/svg" xmlns:xlink="http://www.w3.org/1999/xlink" viewBox="0 0 612 792"><defs><style>.cls-1{fill:#f3dfcd;}.cls-2{fill:#4a2847;}.cls-3{fill:#3d213d;}.cls-4{fill:#f8ebe0;}.cls-5{clip-path:url(#clip-path);}.cls-6{fill:#ddbfa6;}.cls-7{stroke:#231f20;stroke-miterlimit:10;stroke-width:2px;}.cls-8{fill:#ccc;}.cls-9{fill:#fff;}.cls-10{clip-path:url(#clip-path-2);}.cls-11{fill:#926290;}.cls-12{clip-path:url(#clip-path-3);}.cls-13{fill:gray;}</style><clipPath id="clip-path"><path class="cls-1" d="M588.13,278.67A240.79,240.79,0,0,0,576.7,249,245.73,245.73,0,0,0,561.4,221q-4.3-6.79-9.07-13.3c-2.16-3-5.14-7.4-9.2-7.65-3.83-.24-7.44,3.51-10.31,5.65q-3.84,2.88-7.72,5.71-8.9,6.52-17.9,12.87Q486.34,239,464.94,252.93c-14.52,9.44-29.24,18.6-44.34,27.09-11.92,6.7-24.13,13.14-36.94,18-3.44,14.3-12.33,36.85-34.84,45.37l-.56.15L225,363.51l-.37,0c-1.7-.17-33.59-3.49-53.82-12.67-2.62,6.7-5.23,13.39-7.72,20.13-2.55,6.92-4.82,14.05-8.5,20.46a43.88,43.88,0,0,1-13.5,14.47,47.57,47.57,0,0,1-4.75,2.83q-.58,6.71-.92,13.42a325.67,325.67,0,0,0,.16,38c.41,6.08.63,12.57,2.61,18.37,2.32,6.81,8.91,10.13,14.94,13.14a267.83,267.83,0,0,0,92.93,26.85,243.87,243.87,0,0,0,48.25.34c6.64-.68,13.51-2.1,19.07-6s8.34-10.26,9.77-16.66c1.62-7.22,1.75-14.79,1.6-22.15a143.75,143.75,0,0,0-2.44-23.78,148.75,148.75,0,0,0-14.86-42.41L287.32,412l-80.83,16.68a3.57,3.57,0,0,1-1.9-6.89l2.91-.6-5.22-20.48a3.57,3.57,0,1,1,6.89-1.9q2.66,10.47,5.33,20.94l13.09-2.7,11.64-2.41-.06-1.28a3.87,3.87,0,0,1-2.72-1,3.68,3.68,0,0,1,0-5.05q3-3.64,6.16-7.09c8.82-9.43,19.18-18,30.61-24.09s24.58-9.52,37.26-5.81c11.7,3.42,21.39,11.84,29,21.06a109.28,109.28,0,0,1,17.7,30.38,129.28,129.28,0,0,1,8,34.31c1.17,11.93,1.16,24.55-1.42,36.31a42.63,42.63,0,0,1-8.07,17.49,54.3,54.3,0,0,1-13.39,11.66,116.16,116.16,0,0,1-35.49,14.79,122.61,122.61,0,0,1-38.6,3.05c-10.22-.84-22.9-3.15-26.69-14.22-1.68-.19-3.35-.39-5-.61a275.94,275.94,0,0,1-50.35-11.57c-6.76-2.24-13.41-4.77-20-7.53-.1.35-.21.69-.31,1a351,351,0,0,0-12.25,77c-.67,13.07-.46,26.11-.25,39.19s-.06,26.37-3.7,39a82.37,82.37,0,0,1-16.08,30A77.35,77.35,0,0,1,121.85,703c-1.67,1.31-3.92,2.83-4.79,4.86-.7,1.62.06,2.85,1.34,3.84a16.24,16.24,0,0,0,5.65,2.46c3.14.88,6.31,1.67,9.49,2.44q9.68,2.32,19.5,4.06A321.61,321.61,0,0,0,267.31,720a115.1,115.1,0,0,1-1.1-27.51c.65-9.43,2.06-18.8,3.44-28.15s2.77-18.79,4.16-28.18q4.26-28.87,8.51-57.76a2.87,2.87,0,0,1,1.43-2,3.74,3.74,0,0,1,3.09-1.8c.83,0,1.65-.07,2.48-.14l.2,0,.44-.07,1.29-.24a40.17,40.17,0,0,0,5-1.43c.76-.27,1.51-.57,2.26-.87l.85-.37,1.22-.57q2.33-1.12,4.53-2.46a3.32,3.32,0,0,1,.64-.29,3,3,0,0,1,2.11-.07c9.09,3.32,13.68,11.92,16.54,20.62,3.17,9.65,5.26,19.71,7.78,29.54,2.74,10.69,5.55,21.37,8.21,32.09,4.45,18,7.63,38.05-.74,55.21,1.33.47,2.66.92,4,1.36a192,192,0,0,0,135.92-6.64,64.54,64.54,0,0,0,7.54-3.63c1.21-.73,2.83-1.83,2.71-3.39-.15-1.9-2.55-3.59-3.91-4.64-2.13-1.64-4.29-3.23-6.3-5a72.12,72.12,0,0,1-19.14-28.07c-4.47-11.62-6.22-24.12-8.86-36.23-2.4-11-5.05-21.92-8.3-32.68a229.79,229.79,0,0,0-27.67-59.8c-.1-.15-.15-.29-.23-.43h0a3.17,3.17,0,0,1-.36-1.67q-2.94-16.92-6.24-33.77-12.06-61.29-29.11-121.44c-1.26-4.44,5.64-6.32,6.89-1.9,1.12,4,2.21,7.94,3.3,11.91,2.79-.23,5.58-.55,8.11-.92,16.56-2.43,32.78-7.09,48.65-12.3,17.85-5.86,35.39-12.61,52.83-19.57,16.89-6.74,33.69-13.73,50.61-20.4,7.46-2.94,14.94-5.81,22.49-8.5,3.47-1.24,7-2.36,10.45-3.59s7.41-2.85,9.43-6c2.69-4.22,1-9.68-.11-14.15Q590.51,286.29,588.13,278.67Z"/></clipPath><clipPath id="clip-path-2"><path class="cls-1" d="M149.37,151.82c2.17,1.2,4.31,2.45,6.41,3.73.82.61,1.65,1.21,2.48,1.8a130.57,130.57,0,0,1,12,9.38A312,312,0,0,1,192.71,190c5,5.52,8.34,11.83,8.34,19.44,0,8-.79,16-1.36,24a381.89,381.89,0,0,1-6.14,48.14c-4.47,22.14-12.49,43.13-20.68,64.06,18.07,8.3,48.31,11.8,52,12.2l122.21-19.8c29.59-11.44,33-52.23,33-52.64s1.87-67.63-16.31-107.49c-4.21-9.22-11-18.77-32.27-26.1a226,226,0,0,0-39.41-9.6,37.73,37.73,0,0,1-.32,5.69c-1.65,12-10.88,23.06-23.66,23.26-4.6.08-4.59-7.07,0-7.14,9.84-.16,16.15-9.71,16.8-18.72.58-8.12-1.95-15.72-5.34-23a62.67,62.67,0,0,1-18.62,31.13,3.59,3.59,0,0,1-5.61-4.33,23.86,23.86,0,0,0,2.77-11.23,35.34,35.34,0,0,1-36,14.77c-1.91-.33-3-2.67-2.5-4.39a3.69,3.69,0,0,1,4.4-2.5,28.58,28.58,0,0,0,23.61-6.79C210.09,139,175,145.41,149.37,151.82ZM341.25,320.51c-3,.73-7.66,1.4-13,2.17-7.64,1.09-17.15,2.46-25.86,4.56a18.12,18.12,0,0,1-4.23.49,21.76,21.76,0,0,1-14.07-5.41l-.18-.17c-5.41-5.61-11.56-12-14.28-24.16l-.05-.34c-1.49-14.7,6.76-27.5,18.78-29.14l.34,0c16.55-.29,29.53-.83,45.87-5.18,5.87-1.53,11-.93,14.95,1.72s6.45,7.3,7.2,13.32c1.1,9.8.05,18.7-3.09,26.48C352.42,309,346.6,319.23,341.25,320.51ZM307.45,207.4a28.3,28.3,0,1,1,56.46-3.85l2.44,35.7a2.86,2.86,0,0,1-2.66,3.05L337,244.12a3.8,3.8,0,0,1-1.64.11l-22.38,1.53h-.2a2.86,2.86,0,0,1-2.85-2.66Zm-57.71-19.74a28.32,28.32,0,0,1,31.54,24.62l4.39,35.51a2.87,2.87,0,0,1-2.49,3.19l-50.49,6.23-.36,0a2.86,2.86,0,0,1-2.83-2.51l-4.38-35.51A28.33,28.33,0,0,1,249.74,187.66Z"/></clipPath><clipPath id="clip-path-3"><path class="cls-2" d="M111.51,408c11.57-.65,23.53-4.69,31.7-13.18,4.57-4.75,7.41-10.78,9.73-16.87,2.65-7,5.13-14,7.82-20.92,5.54-14.24,11.35-28.39,16.32-42.84a273.56,273.56,0,0,0,11.44-44.8,451,451,0,0,0,4.7-46.42q.34-5.87.63-11.74a21.21,21.21,0,0,0-1.45-9.39c-1.29-3.07-3.45-5.43-5.65-7.87s-4.64-5.1-7-7.62a199.22,199.22,0,0,0-17.89-17.46l-1.46-1.19-.63-.49-.18-.14q-1.25-.94-2.52-1.86c-1.63-1.17-3.28-2.31-4.89-3.51-14-8.56-30-16-46.81-14.82-12.82.92-24.11,7.86-32.73,17.09-9.5,10.16-15.53,22.9-20.11,35.9-7.88,22.39-12.48,46.84-25,67.08l23-11.94c2.66-1.39,6.18.91,5.24,4l-8.67,29Q32.25,337.4,17.5,386.74q3.34.18,6.68.61c15.4,2,29.89,7.61,44.52,12.56C82.45,404.57,96.83,408.83,111.51,408Z"/></clipPath></defs><g id="Layer_2" data-name="Layer 2"><path class="cls-3" d="M430.45,144.75q-1.54-2.73-3.29-5.36a2.64,2.64,0,0,1-.75.24,3.43,3.43,0,0,1-.76.12,149.91,149.91,0,0,0-18.06,3.74A107.47,107.47,0,0,0,380,155.06a54.25,54.25,0,0,0-15.08,13,52.43,52.43,0,0,1,4,7.36c18.74,41.08,16.9,107.36,16.82,110.16,0,.33-.15,1.84-.49,4.15,1.06-.44,2.1-.87,3.11-1.32,14.24-6.26,27.86-13.94,41.22-21.88,10.79-6.4,21.41-13.08,31.92-19.92-5.37-13.46-8.75-27.77-11.84-41.91C445.2,184.25,440.93,163.16,430.45,144.75Z"/><path class="cls-2" d="M335.58,105.15a93.71,93.71,0,0,0-16.25,4.12,61.89,61.89,0,0,0-13.44,6.56c-1.08.71-2.14,1.45-3.17,2.24l-.32.25-.7.57c-.39.32-.76.65-1.14,1a45,45,0,0,0-4.94,5.2l0,0-.21.28-.51.7q-.5.7-1,1.44c-.59.92-1.14,1.88-1.64,2.86-.29.55-.55,1.12-.81,1.69l-.06.13,0,.07c-.11.27-.22.54-.32.81l-.09.26.06.27,6.41,2.91,2.47,1.13a227.08,227.08,0,0,1,33.42,8.65c13.33,4.6,21.58,10.23,27,16a49.26,49.26,0,0,1,5.57-5.8c7.47-6.61,16.3-11.37,25.49-15.12a136.51,136.51,0,0,1,29-8.05c-.5-1-1-1.92-1.61-2.84a30.61,30.61,0,0,0-4.57-5.88,49.23,49.23,0,0,0-13.08-9.9,71.85,71.85,0,0,0-14.57-6.14,107.83,107.83,0,0,0-16.93-3.78c-.78-.11-.87-.12-2-.25-.73-.09-1.47-.17-2.2-.24-1.35-.14-2.71-.25-4.06-.33-3-.19-5.93-.28-8.9-.25s-5.9.15-8.84.4C340.47,104.43,338.4,104.68,335.58,105.15Z"/><path class="cls-4" d="M308.41,400.36a3.67,3.67,0,0,1,4,1.64q3,5.38,5.53,11a157.41,157.41,0,0,1,13.17,48.8,146.1,146.1,0,0,1,.5,24.39c-.5,7.68-1.74,15.53-5.38,22.41s-9.67,11.58-16.86,14.27-14.92,3.24-22.45,3.67A264.65,264.65,0,0,1,250,526a10.5,10.5,0,0,0,1.55,1.5c3.37,2.62,8,3.68,12.13,4.26a104.86,104.86,0,0,0,17.36.82,117.27,117.27,0,0,0,35-6.39c10.57-3.65,21.62-8.74,29.94-16.37a33.71,33.71,0,0,0,9.08-13.06,62.73,62.73,0,0,0,3.29-17.38c1.51-21.47-1.82-43.67-11.27-63.13a95.59,95.59,0,0,0-18.39-26.14c-7.72-7.68-17.43-14-28.65-14.2-11.77-.2-22.84,5.41-32.3,11.95a126.4,126.4,0,0,0-26.25,24.5,3,3,0,0,1-2.34,1l.06,1.28Z"/><path class="cls-1" d="M588.13,278.67A240.79,240.79,0,0,0,576.7,249,245.73,245.73,0,0,0,561.4,221q-4.3-6.79-9.07-13.3c-2.16-3-5.14-7.4-9.2-7.65-3.83-.24-7.44,3.51-10.31,5.65q-3.84,2.88-7.72,5.71-8.9,6.52-17.9,12.87Q486.34,239,464.94,252.93c-14.52,9.44-29.24,18.6-44.34,27.09-11.92,6.7-24.13,13.14-36.94,18-3.44,14.3-12.33,36.85-34.84,45.37l-.56.15L225,363.51l-.37,0c-1.7-.17-33.59-3.49-53.82-12.67-2.62,6.7-5.23,13.39-7.72,20.13-2.55,6.92-4.82,14.05-8.5,20.46a43.88,43.88,0,0,1-13.5,14.47,47.57,47.57,0,0,1-4.75,2.83q-.58,6.71-.92,13.42a325.67,325.67,0,0,0,.16,38c.41,6.08.63,12.57,2.61,18.37,2.32,6.81,8.91,10.13,14.94,13.14a267.83,267.83,0,0,0,92.93,26.85,243.87,243.87,0,0,0,48.25.34c6.64-.68,13.51-2.1,19.07-6s8.34-10.26,9.77-16.66c1.62-7.22,1.75-14.79,1.6-22.15a143.75,143.75,0,0,0-2.44-23.78,148.75,148.75,0,0,0-14.86-42.41L287.32,412l-80.83,16.68a3.57,3.57,0,0,1-1.9-6.89l2.91-.6-5.22-20.48a3.57,3.57,0,1,1,6.89-1.9q2.66,10.47,5.33,20.94l13.09-2.7,11.64-2.41-.06-1.28a3.87,3.87,0,0,1-2.72-1,3.68,3.68,0,0,1,0-5.05q3-3.64,6.16-7.09c8.82-9.43,19.18-18,30.61-24.09s24.58-9.52,37.26-5.81c11.7,3.42,21.39,11.84,29,21.06a109.28,109.28,0,0,1,17.7,30.38,129.28,129.28,0,0,1,8,34.31c1.17,11.93,1.16,24.55-1.42,36.31a42.63,42.63,0,0,1-8.07,17.49,54.3,54.3,0,0,1-13.39,11.66,116.16,116.16,0,0,1-35.49,14.79,122.61,122.61,0,0,1-38.6,3.05c-10.22-.84-22.9-3.15-26.69-14.22-1.68-.19-3.35-.39-5-.61a275.94,275.94,0,0,1-50.35-11.57c-6.76-2.24-13.41-4.77-20-7.53-.1.35-.21.69-.31,1a351,351,0,0,0-12.25,77c-.67,13.07-.46,26.11-.25,39.19s-.06,26.37-3.7,39a82.37,82.37,0,0,1-16.08,30A77.35,77.35,0,0,1,121.85,703c-1.67,1.31-3.92,2.83-4.79,4.86-.7,1.62.06,2.85,1.34,3.84a16.24,16.24,0,0,0,5.65,2.46c3.14.88,6.31,1.67,9.49,2.44q9.68,2.32,19.5,4.06A321.61,321.61,0,0,0,267.31,720a115.1,115.1,0,0,1-1.1-27.51c.65-9.43,2.06-18.8,3.44-28.15s2.77-18.79,4.16-28.18q4.26-28.87,8.51-57.76a2.87,2.87,0,0,1,1.43-2,3.74,3.74,0,0,1,3.09-1.8c.83,0,1.65-.07,2.48-.14l.2,0,.44-.07,1.29-.24a40.17,40.17,0,0,0,5-1.43c.76-.27,1.51-.57,2.26-.87l.85-.37,1.22-.57q2.33-1.12,4.53-2.46a3.32,3.32,0,0,1,.64-.29,3,3,0,0,1,2.11-.07c9.09,3.32,13.68,11.92,16.54,20.62,3.17,9.65,5.26,19.71,7.78,29.54,2.74,10.69,5.55,21.37,8.21,32.09,4.45,18,7.63,38.05-.74,55.21,1.33.47,2.66.92,4,1.36a192,192,0,0,0,135.92-6.64,64.54,64.54,0,0,0,7.54-3.63c1.21-.73,2.83-1.83,2.71-3.39-.15-1.9-2.55-3.59-3.91-4.64-2.13-1.64-4.29-3.23-6.3-5a72.12,72.12,0,0,1-19.14-28.07c-4.47-11.62-6.22-24.12-8.86-36.23-2.4-11-5.05-21.92-8.3-32.68a229.79,229.79,0,0,0-27.67-59.8c-.1-.15-.15-.29-.23-.43h0a3.17,3.17,0,0,1-.36-1.67q-2.94-16.92-6.24-33.77-12.06-61.29-29.11-121.44c-1.26-4.44,5.64-6.32,6.89-1.9,1.12,4,2.21,7.94,3.3,11.91,2.79-.23,5.58-.55,8.11-.92,16.56-2.43,32.78-7.09,48.65-12.3,17.85-5.86,35.39-12.61,52.83-19.57,16.89-6.74,33.69-13.73,50.61-20.4,7.46-2.94,14.94-5.81,22.49-8.5,3.47-1.24,7-2.36,10.45-3.59s7.41-2.85,9.43-6c2.69-4.22,1-9.68-.11-14.15Q590.51,286.29,588.13,278.67Z"/><g class="cls-5"><path class="cls-6" d="M124.67,409.82c.69,20.1,2.17,40.43,10.73,58.93,7.86,17,21.61,28.81,38.77,35.8,18.18,7.41,38.47,9.94,57.89,11.56a514.21,514.21,0,0,0,62.43,1.67c10.4-.42,20-3,27.88-10,7.08-6.27,11.71-14.91,15.95-23.21,4.38-8.58-8.56-16.18-12.95-7.57-3.14,6.13-6.31,12.58-11.05,17.66-5.42,5.82-12,7.83-19.83,8.15-18.16.74-36.69,0-54.82-1.12-17.56-1.11-35.36-3.17-52.25-8.3-15-4.56-28.13-12.58-36.12-26.46-9.92-17.23-11-37.69-11.63-57.08-.33-9.63-15.33-9.67-15,0Z"/><path class="cls-6" d="M162.46,508.5l-13,110.65c-2.11,17.94-3.25,36.32-6.55,54.07-2.67,14.33-11,25.51-25.59,29-9.39,2.22-5.41,16.68,4,14.46a47.49,47.49,0,0,0,33.88-30.83c3-8.67,3.56-18.11,4.63-27.15L163.3,629,177.46,508.5c.48-4-3.78-7.5-7.5-7.5-4.45,0-7,3.46-7.5,7.5Z"/><path class="cls-6" d="M295.2,583c5.07-6.14,13.3-7.54,19.55-2.17,7.16,6.15,10.58,16.88,13.58,25.49a175.81,175.81,0,0,1,9.64,66c-.46,10-3.44,20.95.3,30.61,3.82,9.84,13.87,15,23.13,18.75,19.24,7.7,40.93,6.77,60.9,2.77,25.21-5.06,49-15.53,74.31-20.1,9.49-1.71,5.47-16.17-4-14.46-23.07,4.16-44.84,13.13-67.59,18.6-19.43,4.67-41.3,6.69-60.13-1.48-3.87-1.68-9-3.94-11.6-7.47-3-4.07-1.82-10.07-1.35-14.72a192.64,192.64,0,0,0,.7-34.3c-1.68-22.41-7-44.9-16.78-65.22-4.6-9.61-11.8-19-22.53-21.89a28.33,28.33,0,0,0-28.75,9c-6.1,7.39,4.45,18.06,10.61,10.61Z"/><path class="cls-6" d="M119.82,719.06A380.3,380.3,0,0,0,276,724c9.49-1.67,5.47-16.13-4-14.47a361.67,361.67,0,0,1-148.23-5c-9.37-2.29-13.37,12.17-4,14.46Z"/><path class="cls-6" d="M316.47,324.13a339,339,0,0,1-73.34,27c-22.33,5.38-50.5,10-67.48-9.6-6.34-7.3-16.91,3.35-10.61,10.61,19.24,22.17,50.61,20.53,76.67,14.71a354.5,354.5,0,0,0,82.34-29.73c8.61-4.35,1-17.3-7.58-12.95Z"/><path class="cls-6" d="M393.36,383.54c31.93-8.48,64.05-16.46,95.7-25.9,29.3-8.75,58.34-19.36,84.9-34.68a232.87,232.87,0,0,0,40.88-29.78c7.13-6.53-3.5-17.12-10.61-10.61-27.51,25.18-61.66,41.5-96.68,53.45-38.67,13.2-78.7,22.57-118.17,33.05-9.32,2.48-5.37,16.95,4,14.47Z"/></g><path class="cls-7" d="M599.56,293.33a245.81,245.81,0,0,0-9.66-31.28,249.09,249.09,0,0,0-31.21-57.74c-3.07-4.2-6.36-8.59-11.35-10.57-5.19-2.06-10.3,0-14.56,3.1-5.54,4-11,8.17-16.51,12.18q-20.2,14.63-40.94,28.5c-2.55,1.72-5.12,3.41-7.69,5.1-4.51-11.6-7.54-23.81-10.24-36-4.78-21.6-9-43.73-19.63-63.42-8.81-16.36-22.33-30.89-39.34-38.79-10.1-4.69-20.93-6.72-32-7.33-1.81-.1-3.64-.17-5.47-.23a121,121,0,0,0-17.86.21c-3.6.21-7.19.52-10.74,1-17,2.16-36.07,9-45,24.31-1.91-4.52-4.2-8.92-6.48-13.21-1.77-3.33-6.43-1.52-6.66,1.8a54.82,54.82,0,0,1-6.78,22.81l-2.43-.13a29.76,29.76,0,0,0-2-7.66c-1.31-3.14-5.75-3.62-6.89,0a28.61,28.61,0,0,1-3.49,7.23,388.41,388.41,0,0,0-72.12,6.05c-14.58,2.56-27.77,5.64-38.87,8.6-9.3-4.38-19.16-7.53-29.44-8.12-14.38-.84-27.83,4.41-38.72,13.62-23.48,19.85-29.52,51.22-38.52,79C30,247.66,23.66,263,12.59,274.88a3.59,3.59,0,0,0,4.33,5.61l29.5-15.32q-14.18,47.34-28.34,94.68L9.29,389.23a3.62,3.62,0,0,0,3.45,4.52c31.88-.11,59.71,19.77,91.39,21.41A66.56,66.56,0,0,0,129,411.87c0,.55-.1,1.11-.14,1.67a345.56,345.56,0,0,0-.69,40.58c.26,6,.68,12,1.47,18A36.58,36.58,0,0,0,132.81,484a25,25,0,0,0,7.89,8.74,67.29,67.29,0,0,0,10,5.65q4.41,2.16,8.89,4.16a353.82,353.82,0,0,0-12.53,71.93c-1,13.32-1.25,26.66-1,40,.27,13.55.86,27.34-2.1,40.66a74,74,0,0,1-14.34,30.21,75.87,75.87,0,0,1-12,11.92c-4.4,3.47-9.05,7.68-7.75,13.9,1.13,5.43,6.76,8.23,11.58,9.67,6.36,1.9,12.89,3.34,19.38,4.7a332.41,332.41,0,0,0,40.33,5.89,328.44,328.44,0,0,0,81.3-3.34q5-.83,10-1.82c2-.38,2.88-2.62,2.49-4.39-3.85-17.67-1.3-35.93,1.3-53.59q4.14-28.15,8.3-56.32,2.23-15.18,4.48-30.35c6.37-.51,12.66-3,18.2-6.14,5.55,2.73,8.4,9.3,10.25,14.86,3,9,5,18.49,7.33,27.72q3.87,15.09,7.74,30.18c2.43,9.55,4.82,19.2,5.24,29.08s-1.13,19.82-6.28,28.33c-1.29,2.12,0,4.46,2.13,5.25a198.62,198.62,0,0,0,141.88-1.26q4.32-1.71,8.54-3.6a46.44,46.44,0,0,0,7.55-3.81c4.82-3.31,7.17-9.12,3.61-14.34a25.18,25.18,0,0,0-6.11-5.81,65.25,65.25,0,0,1-6.11-5.15,64.16,64.16,0,0,1-10.55-13.12c-6.49-10.7-9.08-22.9-11.53-35-2.37-11.8-5-23.56-8.13-35.18-6-22-14.34-43.27-26.15-62.82-1.45-2.41-3-4.79-4.5-7.15q-10.63-61.36-26.21-121.74-2-7.74-4.09-15.47c15.13-1.45,30-5.12,44.56-9.46,18.2-5.42,36-12,53.7-18.92s35.2-14.18,52.81-21.24c7.91-3.18,15.84-6.31,23.83-9.29,3.66-1.37,7.33-2.71,11-4,3.88-1.35,7.83-2.51,11.59-4.21,4.15-1.87,8.18-4.81,10.13-9.06C602,304.8,600.9,298.94,599.56,293.33Zm-7.07,14.83c-2,3.18-6,4.82-9.43,6s-7,2.35-10.45,3.59c-7.55,2.69-15,5.56-22.49,8.5-16.92,6.67-33.72,13.66-50.61,20.4-17.44,7-35,13.71-52.83,19.57-15.87,5.21-32.09,9.87-48.65,12.3-2.53.37-5.32.69-8.11.92-1.09-4-2.18-8-3.3-11.91-1.25-4.42-8.15-2.54-6.89,1.9q17,60.09,29.11,121.44,3.32,16.85,6.24,33.77a3.17,3.17,0,0,0,.36,1.67h0c.08.14.13.28.23.43a229.79,229.79,0,0,1,27.67,59.8c3.25,10.76,5.9,21.7,8.3,32.68,2.64,12.11,4.39,24.61,8.86,36.23a72.12,72.12,0,0,0,19.14,28.07c2,1.79,4.17,3.38,6.3,5,1.36,1,3.76,2.74,3.91,4.64.12,1.56-1.5,2.66-2.71,3.39a64.54,64.54,0,0,1-7.54,3.63,192,192,0,0,1-135.92,6.64c-1.33-.44-2.66-.89-4-1.36,8.37-17.16,5.19-37.26.74-55.21-2.66-10.72-5.47-21.4-8.21-32.09-2.52-9.83-4.61-19.89-7.78-29.54-2.86-8.7-7.45-17.3-16.54-20.62a3,3,0,0,0-2.11.07,3.32,3.32,0,0,0-.64.29q-2.2,1.33-4.53,2.46l-1.22.57-.85.37c-.75.3-1.5.6-2.26.87a40.17,40.17,0,0,1-5,1.43l-1.29.24-.44.07-.2,0c-.83.07-1.65.14-2.48.14a3.74,3.74,0,0,0-3.09,1.8,2.87,2.87,0,0,0-1.43,2q-4.24,28.88-8.51,57.76-2.08,14.08-4.16,28.18c-1.38,9.35-2.79,18.72-3.44,28.15a115.1,115.1,0,0,0,1.1,27.51,321.61,321.61,0,0,1-114.27.67q-9.81-1.74-19.5-4.06c-3.18-.77-6.35-1.56-9.49-2.44a16.24,16.24,0,0,1-5.65-2.46c-1.28-1-2-2.22-1.34-3.84.87-2,3.12-3.55,4.79-4.86a77.35,77.35,0,0,0,11.75-11.27,82.37,82.37,0,0,0,16.08-30c3.64-12.64,3.91-25.95,3.7-39s-.42-26.12.25-39.19a351,351,0,0,1,12.25-77c.1-.35.21-.69.31-1,6.57,2.76,13.22,5.29,20,7.53a275.94,275.94,0,0,0,50.35,11.57c1.67.22,3.34.42,5,.61,3.79,11.07,16.47,13.38,26.69,14.22a122.61,122.61,0,0,0,38.6-3.05,116.16,116.16,0,0,0,35.49-14.79,54.3,54.3,0,0,0,13.39-11.66,42.63,42.63,0,0,0,8.07-17.49c2.58-11.76,2.59-24.38,1.42-36.31a129.28,129.28,0,0,0-8-34.31,109.28,109.28,0,0,0-17.7-30.38c-7.66-9.22-17.35-17.64-29-21.06-12.68-3.71-25.91-.23-37.26,5.81s-21.79,14.66-30.61,24.09q-3.21,3.44-6.16,7.09a3.68,3.68,0,0,0,0,5.05,3.87,3.87,0,0,0,2.72,1,3,3,0,0,0,2.34-1,126.4,126.4,0,0,1,26.25-24.5c9.46-6.54,20.53-12.15,32.3-11.95,11.22.18,20.93,6.52,28.65,14.2a95.59,95.59,0,0,1,18.39,26.14c9.45,19.46,12.78,41.66,11.27,63.13a62.73,62.73,0,0,1-3.29,17.38A33.71,33.71,0,0,1,346,509.79c-8.32,7.63-19.37,12.72-29.94,16.37a117.27,117.27,0,0,1-35,6.39,104.86,104.86,0,0,1-17.36-.82c-4.15-.58-8.76-1.64-12.13-4.26A10.5,10.5,0,0,1,250,526a264.65,264.65,0,0,0,36.93.54c7.53-.43,15.32-1,22.45-3.67s13.23-7.4,16.86-14.27,4.88-14.73,5.38-22.41a146.1,146.1,0,0,0-.5-24.39A157.41,157.41,0,0,0,318,413q-2.53-5.6-5.53-11a3.67,3.67,0,0,0-4-1.64l-69.18,14.28-11.64,2.41-13.09,2.7q-2.67-10.47-5.33-20.94a3.57,3.57,0,1,0-6.89,1.9l5.22,20.48-2.91.6a3.57,3.57,0,0,0,1.9,6.89L287.32,412l20.14-4.16a148.75,148.75,0,0,1,14.86,42.41A143.75,143.75,0,0,1,324.76,474c.15,7.36,0,14.93-1.6,22.15-1.43,6.4-4.22,12.79-9.77,16.66s-12.43,5.3-19.07,6a243.87,243.87,0,0,1-48.25-.34,267.83,267.83,0,0,1-92.93-26.85c-6-3-12.62-6.33-14.94-13.14-2-5.8-2.2-12.29-2.61-18.37a325.67,325.67,0,0,1-.16-38q.33-6.71.92-13.42a47.57,47.57,0,0,0,4.75-2.83,43.88,43.88,0,0,0,13.5-14.47c3.68-6.41,6-13.54,8.5-20.46,2.49-6.74,5.1-13.43,7.72-20.13,20.23,9.18,52.12,12.5,53.82,12.67l.37,0,123.25-20,.56-.15c22.51-8.52,31.4-31.07,34.84-45.37,12.81-4.86,25-11.3,36.94-18,15.1-8.49,29.82-17.65,44.34-27.09q21.4-13.92,42.26-28.68,9-6.36,17.9-12.87,3.87-2.83,7.72-5.71c2.87-2.14,6.48-5.89,10.31-5.65,4.06.25,7,4.68,9.2,7.65q4.75,6.5,9.07,13.3A245.73,245.73,0,0,1,576.7,249a240.79,240.79,0,0,1,11.43,29.64q2.37,7.6,4.25,15.34C593.47,298.48,595.18,303.94,592.49,308.16Zm-575,78.58Q32.26,337.39,47,288.06l8.67-29c.94-3.12-2.58-5.42-5.24-4L27.48,267c12.57-20.24,17.17-44.69,25.05-67.08,4.58-13,10.61-25.74,20.11-35.9,8.62-9.23,19.91-16.17,32.73-17.09,16.8-1.21,32.83,6.26,46.81,14.82,1.61,1.2,3.26,2.34,4.89,3.51q1.27.92,2.52,1.86l.18.14.63.49,1.46,1.19a199.22,199.22,0,0,1,17.89,17.46c2.36,2.52,4.69,5.07,7,7.62s4.36,4.8,5.65,7.87a21.21,21.21,0,0,1,1.45,9.39q-.28,5.88-.63,11.74a451,451,0,0,1-4.7,46.42,273.56,273.56,0,0,1-11.44,44.8c-5,14.45-10.78,28.6-16.32,42.84-2.69,6.95-5.17,14-7.82,20.92-2.32,6.09-5.16,12.12-9.73,16.87-8.17,8.49-20.13,12.53-31.7,13.18-14.68.81-29.06-3.45-42.81-8.11-14.63-5-29.12-10.54-44.52-12.56Q20.85,386.92,17.5,386.74ZM224,145.69a3.69,3.69,0,0,0-4.4,2.5c-.47,1.72.59,4.06,2.5,4.39a35.34,35.34,0,0,0,36-14.77A23.86,23.86,0,0,1,255.31,149a3.59,3.59,0,0,0,5.61,4.33,62.67,62.67,0,0,0,18.62-31.13c3.39,7.24,5.92,14.84,5.34,23-.65,9-7,18.56-16.8,18.72-4.59.07-4.6,7.22,0,7.14,12.78-.2,22-11.26,23.66-23.26a37.73,37.73,0,0,0,.32-5.69,226,226,0,0,1,39.41,9.6c21.24,7.33,28.06,16.88,32.27,26.1,18.18,39.86,16.32,106.94,16.31,107.49s-3.4,41.2-33,52.64l-122.21,19.8c-3.67-.4-33.91-3.9-52-12.2,8.19-20.93,16.21-41.92,20.68-64.06a381.89,381.89,0,0,0,6.14-48.14c.57-7.93,1.37-16,1.36-24,0-7.61-3.36-13.92-8.34-19.44a312,312,0,0,0-22.49-23.22,130.57,130.57,0,0,0-12-9.38c-.83-.59-1.66-1.19-2.48-1.8-2.1-1.28-4.24-2.53-6.41-3.73C175,145.41,210.09,139,247.59,138.9A28.58,28.58,0,0,1,224,145.69Zm-64.19,21.55Zm192.7-63.47c3,0,5.93.06,8.9.25,1.35.08,2.71.19,4.06.33.73.07,1.47.15,2.2.24,1.11.13,1.2.14,2,.25a107.83,107.83,0,0,1,16.93,3.78,71.85,71.85,0,0,1,14.57,6.14,49.23,49.23,0,0,1,13.08,9.9,30.61,30.61,0,0,1,4.57,5.88c.58.92,1.11,1.87,1.61,2.84a136.51,136.51,0,0,0-29,8.05c-9.19,3.75-18,8.51-25.49,15.12a49.26,49.26,0,0,0-5.57,5.8c-5.46-5.82-13.71-11.45-27-16a227.08,227.08,0,0,0-33.42-8.65l-2.47-1.13L291,133.61l-.06-.27.09-.26c.1-.27.21-.54.32-.81l0-.07.06-.13c.26-.57.52-1.14.81-1.69.5-1,1.05-1.94,1.64-2.86q.46-.73,1-1.44l.51-.7.21-.28,0,0a45,45,0,0,1,4.94-5.2c.38-.33.75-.66,1.14-1l.7-.57.32-.25c1-.79,2.09-1.53,3.17-2.24a61.89,61.89,0,0,1,13.44-6.56,93.71,93.71,0,0,1,16.25-4.12c2.82-.47,4.89-.72,8.07-1Q348.06,103.8,352.49,103.77ZM429.6,266.55c-13.36,7.94-27,15.62-41.22,21.88-1,.45-2.05.88-3.11,1.32.34-2.31.46-3.82.49-4.15.08-2.8,1.92-69.08-16.82-110.16a52.43,52.43,0,0,0-4-7.36,54.25,54.25,0,0,1,15.08-13,107.47,107.47,0,0,1,27.6-11.57,149.91,149.91,0,0,1,18.06-3.74,3.43,3.43,0,0,0,.76-.12,2.64,2.64,0,0,0,.75-.24q1.74,2.63,3.29,5.36c10.48,18.41,14.75,39.5,19.23,60,3.09,14.14,6.47,28.45,11.84,41.91C451,253.47,440.39,260.15,429.6,266.55Z"/><path class="cls-8" d="M263.9,219.62h0C264,219.63,264,219.6,263.9,219.62Z"/><path class="cls-9" d="M234.82,251.19l14.55-1.8c-7.75-10.88-9.87-27.49-.68-38.09,4.68-5.41,12.06-6.4,18.31-3.18,4.26,2.2,7.13,5.94,9.26,10.1l-.65-5.24a22.61,22.61,0,0,0-22.39-19.82,23.7,23.7,0,0,0-2.78.17,22.61,22.61,0,0,0-19.65,25.18Z"/><path class="cls-1" d="M149.37,151.82c2.17,1.2,4.31,2.45,6.41,3.73.82.61,1.65,1.21,2.48,1.8a130.57,130.57,0,0,1,12,9.38A312,312,0,0,1,192.71,190c5,5.52,8.34,11.83,8.34,19.44,0,8-.79,16-1.36,24a381.89,381.89,0,0,1-6.14,48.14c-4.47,22.14-12.49,43.13-20.68,64.06,18.07,8.3,48.31,11.8,52,12.2l122.21-19.8c29.59-11.44,33-52.23,33-52.64s1.87-67.63-16.31-107.49c-4.21-9.22-11-18.77-32.27-26.1a226,226,0,0,0-39.41-9.6,37.73,37.73,0,0,1-.32,5.69c-1.65,12-10.88,23.06-23.66,23.26-4.6.08-4.59-7.07,0-7.14,9.84-.16,16.15-9.71,16.8-18.72.58-8.12-1.95-15.72-5.34-23a62.67,62.67,0,0,1-18.62,31.13,3.59,3.59,0,0,1-5.61-4.33,23.86,23.86,0,0,0,2.77-11.23,35.34,35.34,0,0,1-36,14.77c-1.91-.33-3-2.67-2.5-4.39a3.69,3.69,0,0,1,4.4-2.5,28.58,28.58,0,0,0,23.61-6.79C210.09,139,175,145.41,149.37,151.82ZM341.25,320.51c-3,.73-7.66,1.4-13,2.17-7.64,1.09-17.15,2.46-25.86,4.56a18.12,18.12,0,0,1-4.23.49,21.76,21.76,0,0,1-14.07-5.41l-.18-.17c-5.41-5.61-11.56-12-14.28-24.16l-.05-.34c-1.49-14.7,6.76-27.5,18.78-29.14l.34,0c16.55-.29,29.53-.83,45.87-5.18,5.87-1.53,11-.93,14.95,1.72s6.45,7.3,7.2,13.32c1.1,9.8.05,18.7-3.09,26.48C352.42,309,346.6,319.23,341.25,320.51ZM307.45,207.4a28.3,28.3,0,1,1,56.46-3.85l2.44,35.7a2.86,2.86,0,0,1-2.66,3.05L337,244.12a3.8,3.8,0,0,1-1.64.11l-22.38,1.53h-.2a2.86,2.86,0,0,1-2.85-2.66Zm-57.71-19.74a28.32,28.32,0,0,1,31.54,24.62l4.39,35.51a2.87,2.87,0,0,1-2.49,3.19l-50.49,6.23-.36,0a2.86,2.86,0,0,1-2.83-2.51l-4.38-35.51A28.33,28.33,0,0,1,249.74,187.66Z"/><g class="cls-10"><path class="cls-6" d="M275.49,285.63c-7.77,6.1-9.6,17.36-5.93,26.23,4.1,9.9,14.24,15.94,24.5,17.62,11.58,1.9,25.08-.2,36.13-4,10.27-3.52,19.51-11.61,19-23.31-.33-7.69-12.33-7.73-12,0,.33,8-7.81,11.29-14.31,12.94-7.58,1.92-15.74,3.5-23.59,2.95-6.48-.45-13.49-2.86-17.39-8.37A11.27,11.27,0,0,1,284,294.12c6.07-4.77-2.47-13.21-8.48-8.49Z"/><path class="cls-6" d="M171,349.15c32,16.56,68.35,11.47,102.72,7.39,35.39-4.2,70.95-9,104.72-20.9,7.24-2.54,4.13-14.14-3.19-11.57-32.16,11.29-65.94,16.22-99.66,20.25-32.35,3.86-68.23,10.13-98.54-5.53-6.85-3.55-12.92,6.8-6.05,10.36Z"/><path class="cls-6" d="M276.76,123.06l.8,12.85c.25,4,.87,8.34.07,12.35-1.32,6.71-7,11.18-12.17,15.1a2.53,2.53,0,0,0-1,3.12,2.5,2.5,0,0,0,2.95,1.45,27.58,27.58,0,0,0,16.51-39.09c-1.44-2.87-5.75-.34-4.32,2.53a22.79,22.79,0,0,1,.15,20,23.13,23.13,0,0,1-13.67,11.7l1.93,4.57c5.94-4.52,12.35-9.59,14.27-17.19,1.1-4.36.66-8.91.38-13.34l-.87-14.09c-.2-3.2-5.2-3.22-5,0Z"/><path class="cls-6" d="M257.45,136.58a41.51,41.51,0,0,0-8.08,16.67,2.54,2.54,0,0,0,2.41,3.17,7.75,7.75,0,0,0,7.79-6.27,2.56,2.56,0,0,0-1.75-3.07c-1.18-.28-2.87.36-3.07,1.74-.05.29-.12.57-.19.85s-.1.27,0,0l-.21.38c-.05.08-.45.56-.12.2a7.15,7.15,0,0,1-.61.62c.38-.34-.29.18-.39.24s-.69.27-.2.11a6.1,6.1,0,0,1-.84.22c.59-.1-.29,0-.42,0l2.41,3.16a39.37,39.37,0,0,1,1.16-4.12c.23-.68.49-1.34.75-2l.06-.14c.07-.16.14-.33.22-.49s.25-.57.39-.85a37.66,37.66,0,0,1,2-3.64c.37-.61.76-1.21,1.17-1.79l.63-.87.32-.43.1-.13a2.55,2.55,0,0,0,0-3.53c-.9-.83-2.66-1.1-3.53,0Z"/><path class="cls-6" d="M155.23,161.1c4.75-4.43,11.09-5.94,17.25-7.39,7.76-1.84,15.58-3.43,23.43-4.84a465.83,465.83,0,0,1,46.8-6c7.65-.6,7.71-12.61,0-12a497.69,497.69,0,0,0-51.88,6.75c-14.63,2.7-32.72,4.39-44.09,15-5.66,5.28,2.84,13.75,8.49,8.49Z"/><path class="cls-6" d="M298.37,148.3c33,11.06,77.77,26,83.21,66.11.44,3.23,4.55,4.94,7.38,4.19,3.48-.92,4.63-4.19,4.19-7.38-6-44.56-54.84-62.16-91.59-74.49-7.34-2.47-10.49,9.12-3.19,11.57Z"/><path class="cls-6" d="M382.5,267.82c-3.84,13.86-7.66,28-14.51,40.71A81.2,81.2,0,0,1,339.64,339c-6.51,4.11-.5,14.5,6.06,10.36a93.44,93.44,0,0,0,31.83-33.27c7.86-14,12.27-29.67,16.54-45.08,2.07-7.45-9.5-10.63-11.57-3.19Z"/></g><path class="cls-8" d="M262.52,224.31c.51-1.24,1.35-2.69,1.34-4.06a1.54,1.54,0,0,0-.11-.58,4.09,4.09,0,0,0-2.13,1.83c-2.61,3.69-4.26,8.49-3.41,13,.72-1.89,1.59-3.73,2.3-5.42Z"/><path class="cls-8" d="M278,245.12c-.23.29-.47.56-.73.83l2.39-.3-.32-2.59A14.19,14.19,0,0,1,278,245.12Z"/><path class="cls-8" d="M250.91,233.89a22.36,22.36,0,0,1,1.49-10.07c1.24-3.2,3-6.74,5.66-9a10.21,10.21,0,0,1,2.28-1.44l-.22,0c-4.33-.34-7.31,3.43-8.73,7.1-3.42,8.78-1.09,19.47,5,26.48a4.11,4.11,0,0,1,.83,1.5l2.29-.29C254.5,245.22,251.48,239.68,250.91,233.89Z"/><path class="cls-9" d="M270.63,222.86c-.08.33-.17.66-.28,1-1.23,3.63-3,7.14-4.43,10.68-.56,1.35-2.8,5.46-1.71,6.63a3.47,3.47,0,0,1,.88,1.62,7.74,7.74,0,0,0,1,.21A6.88,6.88,0,0,0,274,236.9a18,18,0,0,0-1-7.83A50.22,50.22,0,0,0,270.63,222.86Z"/><path class="cls-9" d="M352.71,214.14c-.08.33-.17.66-.28,1-1.23,3.63-2.95,7.14-4.43,10.68-.56,1.35-2.8,5.46-1.71,6.63a3.47,3.47,0,0,1,.88,1.62,7.74,7.74,0,0,0,1,.21,6.88,6.88,0,0,0,7.89-6.08,18,18,0,0,0-1-7.83A50.22,50.22,0,0,0,352.71,214.14Z"/><path class="cls-8" d="M346,210.9h0C346,210.91,346.1,210.88,346,210.9Z"/><path class="cls-8" d="M360.06,236.4c-.12.15-.26.29-.39.44l.78-.05-.06-.86C360.28,236.09,360.18,236.24,360.06,236.4Z"/><path class="cls-9" d="M315.39,239.86l14.83-1c-6.72-10.85-8.13-26.25.55-36.27,4.68-5.41,12.06-6.4,18.31-3.18,4.46,2.3,7.4,6.28,9.55,10.68l-.42-6.14a22.58,22.58,0,0,0-22.49-21.05c-.52,0-1.05,0-1.57.06a22.61,22.61,0,0,0-21,24.06Z"/><path class="cls-8" d="M337.78,281.18l-.22-.07C337.68,281.19,337.78,281.25,337.78,281.18Z"/><path class="cls-8" d="M344.6,215.59c.51-1.24,1.35-2.69,1.34-4.06a1.54,1.54,0,0,0-.11-.58,4.09,4.09,0,0,0-2.13,1.83c-2.61,3.69-4.26,8.49-3.4,13,.71-1.89,1.58-3.73,2.29-5.42Z"/><path class="cls-9" d="M333,225.17a22.36,22.36,0,0,1,1.49-10.07c1.24-3.2,3-6.74,5.66-9a10.21,10.21,0,0,1,2.28-1.44l-.22,0c-4.33-.34-7.31,3.43-8.73,7.1-3.42,8.78-1.09,19.47,5,26.48l.06.08,1.26-.08A18.87,18.87,0,0,1,333,225.17Z"/><path class="cls-8" d="M321.3,283.38Z"/><path class="cls-8" d="M321.36,283.42l.12.08C321.46,283.39,321.4,283.39,321.36,283.42Z"/><path class="cls-8" d="M321.49,283.58s0,0,0-.05a.81.81,0,0,0-.13-.11C321.3,283.47,321.3,283.58,321.49,283.58Z"/><path class="cls-8" d="M321.29,284.8Z"/><path class="cls-8" d="M321.36,283.42h0l.12.08h0Z"/><path class="cls-11" d="M327.42,317c5.22-.75,9.73-1.4,12.49-2.06,2.07-.5,7.22-7.87,8.22-11.76l.12-.37C351.12,295.8,352,288,351,279c-.37-3-1.49-7.05-4.73-9.25-2.55-1.73-6-2-10.28-.92-16.9,4.49-30.18,5.06-47.06,5.36-8.82,1.32-14.82,11.24-13.72,22.72,2.37,10.46,7.61,15.92,12.69,21.18A15.22,15.22,0,0,0,301,321.68C310,319.52,319.66,318.13,327.42,317Zm-12.3-35.82c1.62-2.9,5-3.81,8-4.61a74.79,74.79,0,0,1,7.4-1.55,13.9,13.9,0,0,1,7.32-1.09,6.94,6.94,0,0,1,5.39,3,6.83,6.83,0,0,1,.56,5.62,20.15,20.15,0,0,1-5.12,7.88,11.68,11.68,0,0,1-9.53,3,28.44,28.44,0,0,1-10.36-3.25C315.56,288.46,313.1,284.81,315.12,281.2Zm-4.45,29.07c-7.14-.26-14.74-1.54-19.93-6.9-3.2-3.3,1.85-8.35,5.06-5.05,4.14,4.27,10.6,4.73,16.21,4.84a75.92,75.92,0,0,0,21.57-2.73c4.44-1.22,6.32,5.67,1.9,6.89A82.79,82.79,0,0,1,310.67,310.27Z"/><path d="M229.5,254.72a2.86,2.86,0,0,0,2.83,2.51l.36,0L283.18,251a2.87,2.87,0,0,0,2.49-3.19l-4.39-35.51a28.29,28.29,0,1,0-56.16,6.93Zm26.93-7.8c-6.13-7-8.46-17.7-5-26.48,1.42-3.67,4.4-7.44,8.73-7.1l.22,0a10.21,10.21,0,0,0-2.28,1.44c-2.67,2.27-4.42,5.81-5.66,9a22.36,22.36,0,0,0-1.49,10.07c.57,5.79,3.59,11.33,8.64,14.24l-2.29.29A4.11,4.11,0,0,0,256.43,246.92Zm5.19-25.42a4.09,4.09,0,0,1,2.13-1.83,1.54,1.54,0,0,1,.11.58c0,1.37-.83,2.82-1.34,4.06l-2,4.79c-.71,1.69-1.58,3.53-2.3,5.42C257.36,230,259,225.19,261.62,221.5Zm2.25-1.87h0C264,219.6,264,219.63,263.87,219.63ZM274,236.9a6.88,6.88,0,0,1-7.89,6.08,7.74,7.74,0,0,1-1-.21,3.47,3.47,0,0,0-.88-1.62c-1.09-1.17,1.15-5.28,1.71-6.63,1.48-3.54,3.2-7.05,4.43-10.68.11-.32.2-.65.28-1a50.22,50.22,0,0,1,2.3,6.21A18,18,0,0,1,274,236.9Zm3.29,9c.26-.27.5-.54.73-.83a14.19,14.19,0,0,0,1.34-2.06l.32,2.59Zm-26.81-52.62a23.7,23.7,0,0,1,2.78-.17A22.61,22.61,0,0,1,275.61,213l.65,5.24c-2.13-4.16-5-7.9-9.26-10.1-6.25-3.22-13.63-2.23-18.31,3.18-9.19,10.6-7.07,27.21.68,38.09l-14.55,1.8-4-32.68A22.61,22.61,0,0,1,250.44,193.33Z"/><path d="M312.73,245.76h.2l22.38-1.53a3.8,3.8,0,0,0,1.64-.11l26.74-1.82a2.86,2.86,0,0,0,2.66-3.05l-2.44-35.7a28.3,28.3,0,0,0-56.46,3.85l2.43,35.7A2.86,2.86,0,0,0,312.73,245.76Zm25.78-7.56c-6.13-7-8.46-17.7-5-26.48,1.42-3.67,4.4-7.44,8.73-7.1l.22,0a10.21,10.21,0,0,0-2.28,1.44c-2.67,2.27-4.42,5.81-5.66,9A22.36,22.36,0,0,0,333,225.17a18.87,18.87,0,0,0,6.84,13l-1.26.08Zm5.19-25.42a4.09,4.09,0,0,1,2.13-1.83,1.54,1.54,0,0,1,.11.58c0,1.37-.83,2.82-1.34,4.06l-2,4.79c-.71,1.69-1.58,3.53-2.29,5.42C339.44,221.27,341.09,216.47,343.7,212.78Zm2.25-1.87h0C346.1,210.88,346,210.91,346,210.91ZM356,228.18a6.88,6.88,0,0,1-7.89,6.08,7.74,7.74,0,0,1-1-.21,3.47,3.47,0,0,0-.88-1.62c-1.09-1.17,1.15-5.28,1.71-6.63,1.48-3.54,3.2-7.05,4.43-10.68.11-.32.2-.65.28-1a50.22,50.22,0,0,1,2.3,6.21A18,18,0,0,1,356,228.18Zm3.63,8.66c.13-.15.27-.29.39-.44s.22-.31.33-.47l.06.86ZM334.15,183c.52,0,1.05-.06,1.57-.06a22.58,22.58,0,0,1,22.49,21.05l.42,6.14c-2.15-4.4-5.09-8.38-9.55-10.68-6.25-3.22-13.63-2.23-18.31,3.18-8.68,10-7.27,25.42-.55,36.27l-14.83,1L313.15,207A22.61,22.61,0,0,1,334.15,183Z"/><path d="M356.7,278.34c-.75-6-3.24-10.63-7.2-13.32s-9.08-3.25-14.95-1.72c-16.34,4.35-29.32,4.89-45.87,5.18l-.34,0c-12,1.64-20.27,14.44-18.78,29.14l.05.34c2.72,12.19,8.87,18.55,14.28,24.16l.18.17a21.76,21.76,0,0,0,14.07,5.41,18.12,18.12,0,0,0,4.23-.49c8.71-2.1,18.22-3.47,25.86-4.56,5.36-.77,10-1.44,13-2.17,5.35-1.28,11.17-11.47,12.36-15.69C356.75,297,357.8,288.14,356.7,278.34ZM301,321.68a15.22,15.22,0,0,1-13.11-3.59c-5.08-5.26-10.32-10.72-12.69-21.18-1.1-11.48,4.9-21.4,13.72-22.72,16.88-.3,30.16-.87,47.06-5.36,4.27-1.12,7.73-.81,10.28.92,3.24,2.2,4.36,6.26,4.73,9.25,1,9,.1,16.8-2.77,23.83l-.12.37c-1,3.89-6.15,11.26-8.22,11.76-2.76.66-7.27,1.31-12.49,2.06C319.66,318.13,310,319.52,301,321.68Z"/><path d="M318.77,290.21a28.44,28.44,0,0,0,10.36,3.25,11.68,11.68,0,0,0,9.53-3,20.15,20.15,0,0,0,5.12-7.88,6.83,6.83,0,0,0-.56-5.62,6.94,6.94,0,0,0-5.39-3,13.9,13.9,0,0,0-7.32,1.09,74.79,74.79,0,0,0-7.4,1.55c-3,.8-6.37,1.71-8,4.61C313.1,284.81,315.56,288.46,318.77,290.21Zm2.58-6.79a.81.81,0,0,1,.13.11s0,0,0,.05C321.3,283.58,321.3,283.47,321.35,283.42Zm-.06,1.38Zm.07-1.38h0l.12.08h0Zm0,0s.1,0,.12.08Zm-.06,0Zm16.26-2.27.22.07C337.78,281.25,337.68,281.19,337.56,281.11Z"/><path d="M335.48,307.32c4.42-1.22,2.54-8.11-1.9-6.89A75.92,75.92,0,0,1,312,303.16c-5.61-.11-12.07-.57-16.21-4.84-3.21-3.3-8.26,1.75-5.06,5.05,5.19,5.36,12.79,6.64,19.93,6.9A82.79,82.79,0,0,0,335.48,307.32Z"/><path class="cls-2" d="M111.51,408c11.57-.65,23.53-4.69,31.7-13.18,4.57-4.75,7.41-10.78,9.73-16.87,2.65-7,5.13-14,7.82-20.92,5.54-14.24,11.35-28.39,16.32-42.84a273.56,273.56,0,0,0,11.44-44.8,451,451,0,0,0,4.7-46.42q.34-5.87.63-11.74a21.21,21.21,0,0,0-1.45-9.39c-1.29-3.07-3.45-5.43-5.65-7.87s-4.64-5.1-7-7.62a199.22,199.22,0,0,0-17.89-17.46l-1.46-1.19-.63-.49-.18-.14q-1.25-.94-2.52-1.86c-1.63-1.17-3.28-2.31-4.89-3.51-14-8.56-30-16-46.81-14.82-12.82.92-24.11,7.86-32.73,17.09-9.5,10.16-15.53,22.9-20.11,35.9-7.88,22.39-12.48,46.84-25,67.08l23-11.94c2.66-1.39,6.18.91,5.24,4l-8.67,29Q32.25,337.4,17.5,386.74q3.34.18,6.68.61c15.4,2,29.89,7.61,44.52,12.56C82.45,404.57,96.83,408.83,111.51,408Z"/><g class="cls-12"><path class="cls-3" d="M182.07,194l-7.52,62.65c-2.19,18.2-3.48,37.34-10.6,54.45-13.67,32.84-51.13,43.93-82.4,52.83a541.59,541.59,0,0,1-68.66,14.73c-7.75,1.15-6.49,12.51,0,14.46,33.61,10.09,70.52,9.43,103.51-2.77A167.11,167.11,0,0,0,191.05,335c4.69-6.12-4.27-14-10.26-10.26-19.83,12.39-31.17,32.91-47.47,49a91.67,91.67,0,0,1-63.55,26.06v15c19.22-.51,39.15-1.06,57.36-7.95,17.68-6.7,30.78-18.29,40.65-34.33a413.77,413.77,0,0,0,26.38-50.81c7.86-18,13.5-36.6,14.78-56.3,1.49-22.92-.89-46.25-2-69.17-.45-9.61-15.45-9.66-15,0,.88,18.91,2.3,37.89,2.32,56.82a146.13,146.13,0,0,1-9.74,52.83c-6.41,16.86-15.17,32.79-23.77,48.6-8.1,14.88-17,28.07-32.61,35.71-18,8.78-38.82,9.08-58.41,9.6-9.63.25-9.69,15.07,0,15a107.5,107.5,0,0,0,69.41-26.07c17.91-15.47,28.82-38.32,49.18-51L178.1,327.39c-37.46,48.77-102.58,68.84-161.23,51.25V393.1a539.51,539.51,0,0,0,64-13.43C99.32,374.61,118,369,135.07,360.32c15.74-8,30-19.48,38.66-35.13,9.45-17.16,12-36.83,14.31-56q4.54-37.6,9-75.22c.49-4-3.79-7.5-7.5-7.5-4.45,0-7,3.46-7.5,7.5Z"/><path class="cls-3" d="M23.46,271l27.45-13.68c2.88-1.43.35-5.74-2.52-4.31L20.93,266.68c-2.88,1.43-.35,5.75,2.53,4.32Z"/><path class="cls-3" d="M145.38,347.26a222.73,222.73,0,0,1-84.57,30.2C53.19,378.54,56.43,390.1,64,389a231.33,231.33,0,0,0,87.44-31.41c6.58-4,.56-14.39-6.06-10.36Z"/></g><path class="cls-13" d="M159.79,167.24Z"/></g></svg>